<?xml version="1.0" encoding="UTF-8" standalone="no"?>
<!-- Created with Inkscape (http://www.inkscape.org/) -->

<svg
   xmlns:dc="http://purl.org/dc/elements/1.1/"
   xmlns:cc="http://creativecommons.org/ns#"
   xmlns:rdf="http://www.w3.org/1999/02/22-rdf-syntax-ns#"
   xmlns:svg="http://www.w3.org/2000/svg"
   xmlns="http://www.w3.org/2000/svg"
   xmlns:sodipodi="http://sodipodi.sourceforge.net/DTD/sodipodi-0.dtd"
   xmlns:inkscape="http://www.inkscape.org/namespaces/inkscape"
   version="1.1"
   id="svg3761"
   width="170.66667"
   height="170.66667"
   viewBox="0 0 170.66667 170.66667"
   sodipodi:docname="ovehiita.svg"
   inkscape:version="0.92.2 (5c3e80d, 2017-08-06)">
  <metadata
     id="metadata3767">
    <rdf:RDF>
      <cc:Work
         rdf:about="">
        <dc:format>image/svg+xml</dc:format>
        <dc:type
           rdf:resource="http://purl.org/dc/dcmitype/StillImage" />
        <dc:title></dc:title>
      </cc:Work>
    </rdf:RDF>
  </metadata>
  <defs
     id="defs3765" />
  <sodipodi:namedview
     pagecolor="#ffffff"
     bordercolor="#666666"
     borderopacity="1"
     objecttolerance="10"
     gridtolerance="10"
     guidetolerance="10"
     inkscape:pageopacity="0"
     inkscape:pageshadow="2"
     inkscape:window-width="1440"
     inkscape:window-height="838"
     id="namedview3763"
     showgrid="false"
     inkscape:zoom="1.3828125"
     inkscape:cx="85.333336"
     inkscape:cy="85.333336"
     inkscape:window-x="-8"
     inkscape:window-y="-8"
     inkscape:window-maximized="1"
     inkscape:current-layer="g3771" />
  <g
     id="g3771"
     transform="translate(0.72316832,4.3389832)">
    <path
       style="fill:#f4b4cc;stroke-width:1.33333337"
       d="m 76.418431,161.3997 c -2.336531,-1.42468 -4.886531,-3.78299 -5.666667,-5.2407 -2.011879,-3.75922 -1.756603,-9.86888 0.539167,-12.90416 1.18967,-1.57288 1.974229,-5.65665 2,-10.41035 0.04049,-7.46947 -0.09287,-7.78592 -2.957596,-7.0182 -1.65,0.44218 -4.142992,0.81216 -5.539984,0.82217 -2.376156,0.017 -2.397656,0.17548 -0.333334,2.45653 2.598598,2.87142 2.921435,9.99268 0.539984,11.91112 -0.916666,0.73845 -3.622705,1.76092 -6.01342,2.27215 -2.390715,0.51124 -6.161941,1.83505 -8.380504,2.94182 -2.218563,1.10676 -6.6737,2.0522 -9.900307,2.10099 -12.092832,0.18281 -16.73494,-7.85211 -11.445249,-19.81033 1.561674,-3.53043 3.190169,-9.77486 3.618877,-13.87652 0.743423,-7.11267 0.602371,-7.57455 -3.049964,-9.98719 -2.106188,-1.39129 -5.448158,-2.36635 -7.426599,-2.16679 -2.457805,0.2479 -4.143083,-0.51133 -5.320728,-2.39704 -0.947961,-1.517926 -3.005769,-2.759865 -4.57291,-2.759865 -3.4814847,0 -6.1796453,-2.9975 -5.6293062,-6.253832 C 7.1041715,89.752444 6.2600879,87.200498 5.0041493,85.408511 3.0459381,82.614515 2.9843849,81.854722 4.5720789,80.075178 c 1.0182999,-1.141347 2.0581003,-3.575177 2.3106678,-5.40851 0.351588,-2.552103 1.1613095,-3.258895 3.4549003,-3.01572 2.639595,0.27986 2.995687,-0.289917 2.995687,-4.793349 0,-3.342936 0.883724,-5.910724 2.554645,-7.422887 2.332787,-2.111142 2.391444,-2.70252 0.67542,-6.809542 -2.234407,-5.347689 -0.778257,-10.620759 3.289423,-11.911789 2.338974,-0.742363 2.577222,-1.650462 1.910324,-7.281371 -0.971378,-8.201768 2.246308,-12.098676 9.989905,-12.098676 4.492916,0 5.344087,-0.540411 7.295068,-4.63166 2.271991,-4.764415 6.690681,-6.9373417 11.532469,-5.671186 1.603042,0.419206 3.556356,-0.507797 5.30312,-2.5167526 3.008434,-3.4600036 10.376939,-4.3864236 13.114513,-1.6488486 1.153183,1.1531822 2.712828,0.4943805 6.313062,-2.6666667 5.933725,-5.2098796 11.028703,-5.4704297 15.426768,-0.7889036 2.21028,2.3527359 4.451678,3.343903 7.232419,3.198244 9.41131,-0.4929772 12.6962,1.616795 12.6962,8.1543455 0,3.435908 0.47275,3.904761 3.93726,3.904761 6.18306,0 10.56192,2.680819 12.31992,7.542491 0.88652,2.451631 2.34529,4.457509 3.2417,4.457509 0.89642,0 3.41251,1.5 5.59129,3.333334 2.1788,1.833333 5.40483,3.333333 7.16898,3.333333 1.76413,0 3.80905,0.601529 4.54425,1.336732 0.89343,0.893421 3.86064,0.870163 8.94717,-0.07013 4.18575,-0.773778 8.20422,-1.039896 8.92994,-0.591378 1.76512,1.0909 1.66438,12.028893 -0.17168,18.642529 -0.82728,2.979886 -3.5077,7.233593 -6.09695,9.675569 l -4.62063,4.35782 5.45811,8.173581 c 6.64137,9.945534 7.28927,12.313378 6.40013,23.390123 -1.4252,17.75503 -11.2197,29.79481 -21.85052,26.8595 -3.55769,-0.98233 -5.95298,-0.8021 -9.8006,0.73741 -6.55584,2.62312 -11.78118,1.19935 -18.76955,-5.11422 C 113.01542,122.12889 110.04531,120 109.29525,120 c -2.05195,0 2.48734,8.172 6.75592,12.16256 4.36779,4.0833 7.34165,12.76274 6.08645,17.76382 -1.04323,4.15658 -5.32251,6.07362 -13.55775,6.07362 -3.25226,0 -5.9132,0.60882 -5.9132,1.35294 0,0.7441 -1.95,2.54186 -4.333335,3.99501 -5.75356,3.50801 -16.206033,3.53269 -21.914904,0.0517 z m 0.914904,-72.820686 c 0,-4.081544 -0.621111,-8.581544 -1.380246,-10 -1.079708,-2.017455 -0.944397,-2.579013 0.621431,-2.579013 3.774746,0 11.175627,-4.375118 12.922584,-7.63934 1.54718,-2.89093 1.447006,-3.430328 -0.87494,-4.711224 C 82.605082,60.330127 77.41472,53.645213 76.522525,48.065734 l -0.89908,-5.622536 -8.145056,0.383027 c -4.59297,0.215988 -9.415137,-0.316755 -11.0574,-1.221599 -5.368615,-2.957967 -7.087655,-2.072691 -7.087655,3.650019 0,2.890055 -0.547792,5.593199 -1.217317,6.006987 -2.537201,1.568077 -3.046296,11.113167 -0.840637,15.761248 2.033229,4.284713 8.996061,8.977121 13.320705,8.977121 1.489794,0 1.552356,0.75926 0.329515,3.998937 -1.226807,3.250184 -2.203723,3.946033 -5.217514,3.71639 -2.039446,-0.155401 -3.708085,-0.854922 -3.708085,-1.554492 0,-0.69957 -0.401309,-0.870637 -0.891797,-0.380148 -0.49049,0.49049 -2.093627,-0.15951 -3.562527,-1.444444 -1.928265,-1.686768 -2.365299,-1.780242 -1.572063,-0.336242 2.626667,4.78156 5.331711,6.666666 9.566371,6.666666 4.208272,0 4.460016,0.263408 4.460016,4.666667 v 4.666667 h 8.666667 8.666667 z"
       id="path3785"
       inkscape:connector-curvature="0" />
    <path
       style="fill:#f1c9a1;stroke-width:1.33333337"
       d="m 77.597454,161.76959 c -7.229027,-3.56267 -10.207614,-11.73484 -6.306905,-17.30388 2.460787,-3.51327 3.967535,-12.59447 2.837022,-17.09879 -0.723942,-2.88441 -1.262084,-3.21036 -3.406022,-2.06295 -1.40043,0.74948 -3.878674,1.3627 -5.507209,1.3627 -2.784087,0 -2.829149,0.14566 -0.754323,2.43832 2.787239,3.07986 2.842194,8.73567 0.111414,11.46644 -1.152382,1.15239 -3.955138,2.09524 -6.228347,2.09524 -2.27321,0 -5.206004,0.97096 -6.517322,2.15768 -2.725398,2.46645 -12.648417,3.92756 -17.834276,2.62599 -2.273187,-0.57054 -4.146473,-2.4245 -5.342795,-5.28771 -1.961453,-4.69441 -1.599794,-8.10523 1.625384,-15.32905 1.104939,-2.47486 2.318047,-7.90818 2.695794,-12.07405 0.652546,-7.1964 0.495806,-7.70087 -3.141527,-10.1111 -2.105588,-1.39524 -5.102486,-2.37892 -6.659772,-2.18595 -1.557288,0.19297 -3.912318,-0.73215 -5.233402,-2.05581 C 16.614086,99.083001 13.68823,97.384454 11.433266,96.632117 7.9055292,95.455135 7.3779609,94.683465 7.6531013,91.102895 7.8593396,88.418992 7.2676099,86.670927 5.9864347,86.179294 3.7468779,85.319896 3.2958907,80.592544 5.3333334,79.333335 c 0.7333334,-0.453225 1.3333334,-2.253225 1.3333334,-4 0,-3.929336 2.1486688,-5.423086 4.7250732,-3.28486 1.650626,1.369897 1.941594,0.718718 1.941594,-4.345231 0,-4.176221 0.763565,-6.647627 2.554645,-8.268532 2.361075,-2.136743 2.406237,-2.667114 0.596031,-6.999548 -1.750502,-4.18954 -1.730344,-5.036012 0.18971,-7.966387 1.18158,-1.803319 2.979054,-3.59754 3.994387,-3.98716 1.368811,-0.525263 1.652213,-2.34514 1.096235,-7.03951 -0.681356,-5.752985 -0.414467,-6.594904 2.922728,-9.219941 2.114179,-1.663014 5.576461,-2.888832 8.159409,-2.888832 2.46777,0 4.486855,-0.553966 4.486855,-1.231034 0,-0.677068 1.605049,-3.138525 3.566777,-5.469906 3.091849,-3.674453 4.181565,-4.139108 8.183905,-3.489618 3.818114,0.619595 5.063524,0.181752 7.196662,-2.5300932 2.769868,-3.5213162 7.437126,-4.2377784 11.932777,-1.8317789 2.16242,1.1572917 3.281169,0.9233324 5.579012,-1.1667158 7.023176,-6.38806684 11.087471,-6.9454623 16.631043,-2.2808547 2.950881,2.4830032 5.503673,3.3333334 10.00706,3.3333334 7.10194,0 10.2361,2.4786548 10.2361,8.0952392 0,3.543889 0.41467,3.904761 4.48685,3.904761 5.63443,0 11.04118,4.149161 12.18338,9.349582 0.65739,2.993042 1.62621,3.983752 3.89573,3.983752 1.6614,0 4.10672,1.2 5.43404,2.666666 1.32732,1.466667 3.77745,2.666667 5.44475,2.666667 1.66729,0 3.90286,0.871428 4.96794,1.936508 1.06508,1.065079 2.23211,1.640909 2.5934,1.279623 0.36128,-0.361287 3.88272,-1.16872 7.8254,-1.794294 8.28848,-1.31511 9.12143,-0.65492 9.14066,7.24483 0.0207,8.483812 -2.41536,15.020986 -7.48747,20.093098 l -4.7094,4.709404 5.70539,8.756973 c 4.66046,7.153154 5.8076,10.169874 6.26341,16.471509 0.69715,9.637945 -3.58288,23.420425 -9.11061,29.337885 -3.53998,3.78956 -4.49976,4.10202 -12.23736,3.98396 -4.61786,-0.0705 -11.45019,0.24777 -15.18295,0.70717 -6.5215,0.80263 -7.0329,0.62231 -13.08109,-4.61236 C 113.3369,122.45144 109.92557,120 109.218,120 c -1.87315,0 2.46328,8.01257 6.85525,12.66667 2.07609,2.2 4.53523,6.85701 5.46477,10.34892 1.5727,5.90801 1.49311,6.54588 -1.14604,9.18503 -1.92163,1.92162 -5.1291,3.05464 -9.94738,3.51382 -4.78796,0.4563 -7.66862,1.46794 -8.81724,3.09648 -3.507059,4.9724 -16.658246,6.59163 -24.029906,2.95867 z M 75.000001,96.018209 c 1.940554,-0.01515 2.333334,-1.267412 2.333334,-7.439195 0,-4.081544 -0.586708,-8.517264 -1.303796,-9.857155 -1.115578,-2.084475 -0.657812,-2.557352 3.17096,-3.275634 C 83.980374,74.549515 90.677439,69.2565 90.650163,66.397 90.641096,65.445317 88.49607,63.281643 85.88346,61.588835 81.305886,58.62285 76.092325,49.90191 76.029284,45.10534 76.005401,43.28826 74.217157,42.764693 66.333335,42.266538 61.016668,41.930594 55.016668,41.213246 53.000001,40.67243 c -3.489215,-0.935713 -3.666667,-0.757307 -3.666667,3.686392 0,2.568332 -0.896304,6.388278 -1.991785,8.48877 -2.482861,4.76067 -2.529792,8.656416 -0.172251,14.298805 1.806844,4.324388 8.668219,8.853604 13.412454,8.853604 1.863437,0 1.938,0.434152 0.515225,3.000001 -0.914933,1.65 -1.537365,3.446033 -1.383184,3.991185 0.418355,1.479201 -3.745201,0.444507 -9.323355,-2.316967 -2.718592,-1.345844 -4.672038,-2.885245 -4.34099,-3.42089 0.331046,-0.535647 -0.294651,-1.317942 -1.390439,-1.738435 -2.928199,-1.123656 -2.469815,0.165168 2.119697,5.959901 3.340592,4.21784 4.96652,5.191872 8.666667,5.191872 4.299618,0 4.554628,0.256326 4.554628,4.578104 0,3.964311 0.491595,4.656135 3.666667,5.160119 2.016667,0.320108 4.866667,0.368155 6.333333,0.106774 1.466667,-0.261386 3.716667,-0.483439 5,-0.493452 z M 103.37155,59.068093 C 101.68982,50.103696 96.965399,45.78015 87.422262,44.472117 c -5.908136,-0.8098 -6.088927,-0.729645 -6.088927,2.699565 0,4.74335 7.275381,12.447695 14,14.825455 8.400545,2.970352 9.097315,2.716456 8.038215,-2.929044 z m 48.0526,1.64656 c 3.17541,-1.326772 5.29707,-3.448429 6.62384,-6.623841 3.01832,-7.223844 2.58755,-8.757478 -2.45981,-8.757478 -5.77324,0 -10.27072,3.128471 -7.92151,5.510239 2.98553,3.026901 2.01899,7.683863 -1.79336,8.640701 -2.55644,0.641626 -2.99169,1.16523 -1.66667,2.004986 2.28192,1.446209 1.77115,1.501028 7.21751,-0.774607 z"
       id="path3783"
       inkscape:connector-curvature="0" />
    <path
       style="fill:#d6b398;stroke-width:1.33333337"
       d="m 77.597454,161.76959 c -7.566343,-3.72891 -10.351499,-12.22969 -5.834509,-17.80793 2.268476,-2.80146 2.644294,-2.86415 5.666667,-0.94527 5.945675,3.77487 11.518064,4.14123 16.678421,1.09655 2.591085,-1.52879 6.137707,-2.7796 7.881387,-2.7796 5.21682,0 9.7491,-2.33016 11.67253,-6.00115 1.73464,-3.31069 1.90412,-3.35498 3.99534,-1.04421 1.20112,1.32722 2.94592,5.2624 3.87732,8.74482 1.57606,5.8927 1.49684,6.52835 -1.14263,9.16782 -1.92163,1.92162 -5.1291,3.05464 -9.94738,3.51382 -4.78796,0.4563 -7.66862,1.46794 -8.81724,3.09648 -3.507059,4.9724 -16.658246,6.59163 -24.029906,2.95867 z M 31.726705,146.43831 c -3.181951,-2.47977 -4.83211,-7.66696 -4.068143,-12.78796 0.815916,-5.46923 2.483044,-6.53882 5.680947,-3.64476 2.77319,2.5097 4.523069,2.63145 17.775944,1.23674 5.870333,-0.61778 9.370335,-1.6235 9.831408,-2.82504 1.17238,-3.05517 5.719807,2.00186 5.719807,6.36079 0,4.8552 -3.200652,7.88859 -8.323584,7.88859 -2.27321,0 -5.252836,1.01335 -6.621394,2.25187 -3.258177,2.94861 -16.837205,3.98072 -19.994985,1.51977 z m 47.451491,-21.18604 c -2.651157,-2.65116 -2.914372,-2.66827 -7.488935,-0.48681 -6.044404,2.88238 -11.348744,1.72217 -12.465289,-2.7265 -0.695032,-2.76923 -1.3918,-3.13873 -4.678986,-2.48129 -7.404165,1.48084 -14.544985,-3.49574 -14.544985,-10.13668 0,-2.12243 -0.849603,-2.75432 -3.703326,-2.75432 -2.036828,0 -5.180674,-1.03478 -6.986324,-2.2995 -1.80565,-1.26473 -4.563297,-2.13173 -6.128107,-1.92667 -1.564808,0.20506 -3.925992,-0.71017 -5.247076,-2.03383 C 16.614086,99.083001 13.68823,97.384454 11.433266,96.632117 7.9055292,95.455135 7.3779609,94.683465 7.6531013,91.102895 7.8593396,88.418992 7.2676099,86.670927 5.9864347,86.179294 3.7468779,85.319896 3.2958907,80.592544 5.3333334,79.333335 c 0.7333334,-0.453225 1.3333334,-2.253225 1.3333334,-4 0,-3.929336 2.1486688,-5.423086 4.7250732,-3.28486 1.650626,1.369897 1.941594,0.718718 1.941594,-4.345231 0,-4.176221 0.763565,-6.647627 2.554645,-8.268532 2.361075,-2.136743 2.406237,-2.667114 0.596031,-6.999548 -1.750502,-4.18954 -1.730344,-5.036012 0.18971,-7.966387 1.18158,-1.803319 2.979054,-3.59754 3.994387,-3.98716 1.368811,-0.525263 1.652213,-2.34514 1.096235,-7.03951 -0.681356,-5.752985 -0.414467,-6.594904 2.922728,-9.219941 2.114179,-1.663014 5.576461,-2.888832 8.159409,-2.888832 2.46777,0 4.486855,-0.553966 4.486855,-1.231034 0,-0.677068 1.605049,-3.138525 3.566777,-5.469906 3.091849,-3.674453 4.181565,-4.139108 8.183905,-3.489618 3.818114,0.619595 5.063524,0.181752 7.196662,-2.5300932 2.769868,-3.5213162 7.437126,-4.2377784 11.932777,-1.8317789 2.16242,1.1572917 3.281169,0.9233324 5.579012,-1.1667158 7.023176,-6.38806684 11.087471,-6.9454623 16.631043,-2.2808547 2.950881,2.4830032 5.503673,3.3333334 10.00706,3.3333334 7.10194,0 10.2361,2.4786548 10.2361,8.0952392 0,3.543889 0.41467,3.904761 4.48685,3.904761 5.63443,0 11.04118,4.149161 12.18338,9.349582 0.65739,2.993042 1.62621,3.983752 3.89573,3.983752 1.6614,0 4.10672,1.2 5.43404,2.666666 1.32732,1.466667 3.77745,2.666667 5.44475,2.666667 6.14158,0 7.81277,3.894813 4.94805,11.531799 -0.31603,0.842491 0.0663,1.9279 0.84964,2.412023 0.78332,0.484124 1.42423,2.333382 1.42423,4.109465 0,2.332353 -0.9256,3.461552 -3.33262,4.065676 -2.30302,0.578022 -3.6656,2.130599 -4.41038,5.025403 -0.8428,3.275707 -1.89578,4.284365 -4.82982,4.626539 -2.06362,0.240662 -4.37049,-0.180879 -5.12637,-0.93676 -0.94355,-0.94355 -2.41175,-0.558294 -4.68405,1.229097 -4.26571,3.355407 -6.27196,3.281561 -9.9186,-0.365079 -1.77098,-1.770976 -4.21993,-2.804514 -6.0706,-2.561996 C 106.65654,67.033561 104,64.415104 104,59.608396 c 0,-2.235798 -1.03208,-5.205519 -2.2935,-6.599382 -1.26143,-1.393862 -2.361917,-4.09696 -2.445525,-6.006884 -0.293105,-6.695655 -17.565251,-11.59182 -22.007993,-6.238643 -1.379239,1.66188 -3.694809,1.971889 -11.163259,1.494532 -5.18268,-0.331258 -11.073055,-1.044773 -13.089722,-1.585589 -3.489215,-0.935713 -3.666667,-0.757307 -3.666667,3.686392 0,2.568332 -0.896304,6.388278 -1.991785,8.48877 -2.482861,4.76067 -2.529792,8.656416 -0.172251,14.298805 1.806844,4.324388 8.668219,8.853604 13.412454,8.853604 1.863437,0 1.938,0.434152 0.515225,3.000001 -0.914933,1.65 -1.537365,3.446033 -1.383184,3.991185 0.418355,1.479201 -3.745201,0.444507 -9.323355,-2.316967 -2.718592,-1.345844 -4.672038,-2.885245 -4.34099,-3.42089 0.331046,-0.535647 -0.294651,-1.317942 -1.390439,-1.738435 -2.928199,-1.123656 -2.469815,0.165168 2.119697,5.959901 3.340592,4.21784 4.96652,5.191872 8.666667,5.191872 4.282709,0 4.554628,0.268194 4.554628,4.492211 0,4.039531 0.43667,4.560846 4.333334,5.173322 2.383333,0.37461 6.283333,0.385016 8.666666,0.02312 4.278582,-0.64967 4.333334,-0.749838 4.333334,-7.927641 0,-3.99831 -0.586708,-8.36593 -1.303796,-9.705821 -1.115578,-2.084475 -0.657812,-2.557352 3.17096,-3.275634 5.005944,-0.939121 11.466169,-6.225405 11.466169,-9.382558 0,-2.41681 0.153666,-2.446172 4.384194,-0.837728 l 3.22446,1.225937 -3.103237,9.107396 C 91.290664,86.950479 90.923906,101.17094 94.335407,108 c 1.282194,2.56667 4.592379,6.12439 7.355963,7.90604 5.63393,3.63214 4.70951,5.37259 -2.871807,5.40688 -3.084262,0.0139 -5.492131,1.07608 -7.603001,3.35375 -3.753556,4.05015 -8.350211,4.27376 -12.038366,0.5856 z m 60.959634,-1.46393 c 0.52617,-5.93174 -0.15131,-7.50263 -3.61004,-8.37072 -4.20734,-1.05597 -9.86112,-4.62103 -9.86112,-6.21803 0,-0.63822 1.95,0.0285 4.33333,1.48169 5.5925,3.40981 11.73086,3.36749 16.15352,-0.11138 1.93223,-1.5199 3.51315,-2.21289 3.51315,-1.53999 0,1.67806 -4.52164,5.63676 -6.43832,5.63676 -0.92917,0 -1.56168,2.12822 -1.56168,5.25464 0,2.89006 -0.63129,5.64481 -1.40287,6.12167 -0.85204,0.52659 -1.29414,-0.35869 -1.12597,-2.25464 z m -30.3418,-5.45171 c -1.37047,-2.21746 -1.53692,-19.669961 -0.18761,-19.669961 0.58204,0 1.05825,1.107008 1.05825,2.460011 0,2.48939 3.00577,5.81637 6.66667,7.37909 1.1,0.46955 -0.0281,0.54723 -2.5069,0.17261 l -4.50689,-0.68114 0.67644,6.00138 c 0.70979,6.29722 0.4937,7.07841 -1.19996,4.33801 z m 5.42783,-37.474451 c -1.48191,-3.861811 -0.0139,-8.195511 2.77614,-8.195511 2.15674,0 2.66667,0.888889 2.66667,4.648407 0,3.370036 -0.64281,4.7722 -2.33737,5.098543 -1.28555,0.247573 -2.683,-0.450574 -3.10544,-1.551439 z m 32,0 c -1.48191,-3.861811 -0.0139,-8.195511 2.77614,-8.195511 2.15674,0 2.66667,0.888889 2.66667,4.648407 0,3.370036 -0.6428,4.7722 -2.33736,5.098543 -1.28556,0.247573 -2.683,-0.450574 -3.10545,-1.551439 z"
       id="path3781"
       inkscape:connector-curvature="0" />
    <path
       style="fill:#959696;stroke-width:1.33333337"
       d="m 80.5932,162.63379 c -6.181036,-1.88463 -10.477516,-7.17397 -10.320713,-12.70572 0.208933,-7.37084 2.15666,-8.76825 8.040336,-5.76859 6.324932,3.22464 11.914152,3.17176 17.386072,-0.16446 2.401058,-1.46392 6.337925,-2.66168 8.748585,-2.66168 4.74445,0 10.21919,-4.04399 10.21919,-7.54854 0,-3.97682 3.73779,0.73764 6.01101,7.5817 1.59791,4.81084 1.79234,7.17625 0.74998,9.12393 -1.76961,3.30653 -9.79676,6.03575 -14.80581,5.03395 -2.92033,-0.58407 -3.98457,-0.19895 -4.57294,1.65485 -1.48144,4.66763 -13.78125,7.79453 -21.45571,5.45456 z M 31.513146,145.23656 c -2.707216,-2.12949 -3.513145,-3.9397 -3.513145,-7.89094 0,-8.58635 0.941308,-9.71529 5.370312,-6.44078 3.126374,2.31143 4.799248,2.6301 9.543609,1.81801 3.164011,-0.54158 7.797652,-0.91867 10.296983,-0.83798 2.633456,0.085 5.627485,-0.83362 7.120426,-2.18472 2.457926,-2.22439 2.662468,-2.21342 4.455762,0.23906 4.090547,5.59415 0.278348,12.72746 -6.801844,12.72746 -1.515105,0 -5.108467,1.2 -7.985248,2.66667 -6.804385,3.46906 -14.001512,3.4314 -18.486855,-0.0968 z m 48.047966,-19.96227 c -3.23092,-2.54144 -3.734363,-2.58651 -7.446932,-0.66666 -2.189964,1.13247 -5.118556,2.05904 -6.507983,2.05904 -2.670374,0 -6.939529,-3.8867 -6.939529,-6.31785 0,-0.84012 -2.593223,-1.402 -6.217687,-1.34721 -5.174512,0.0782 -6.740416,-0.51371 -9.333333,-3.52816 -1.713606,-1.99218 -3.115647,-4.78869 -3.115647,-6.21447 0,-1.96434 -0.925412,-2.59231 -3.820188,-2.59231 -2.101104,0 -5.347804,-1.20162 -7.21489,-2.67027 -1.933564,-1.52094 -4.327889,-2.31218 -5.562805,-1.8383 -1.237906,0.47503 -3.33464,-0.22372 -4.887063,-1.62864 C 17.019627,99.176118 13.891974,97.437801 11.564714,96.666534 7.8965874,95.450895 7.3758989,94.710301 7.6531013,91.102895 7.8593396,88.418992 7.2676099,86.670927 5.9864347,86.179294 3.7468779,85.319896 3.2958907,80.592544 5.3333334,79.333335 6.0666668,78.88011 6.6666668,77.1447 6.6666668,75.476868 c 0,-4.043861 1.1696907,-4.991603 4.1753102,-3.383043 2.256668,1.207732 2.491357,0.783175 2.491357,-4.506929 0,-4.115105 0.775033,-6.541657 2.623762,-8.214734 1.978627,-1.790633 2.30647,-2.96734 1.333334,-4.785661 -2.649038,-4.949772 -1.535115,-10.476893 2.620853,-13.00429 2.89272,-1.759168 3.592481,-2.882536 2.687084,-4.313734 -0.673309,-1.06433 -1.233387,-3.841595 -1.244616,-6.171703 -0.02587,-5.368916 5.161856,-9.76344 11.52573,-9.76344 3.458424,0 4.789288,-0.704512 5.66717,-3 2.037264,-5.327041 6.255582,-8.106221 10.895367,-7.178264 3.430807,0.686162 4.65093,0.238861 6.799626,-2.4927626 2.793065,-3.5508072 7.448211,-4.3023612 11.898033,-1.9208883 2.124082,1.1367736 3.411535,0.7513356 6.681775,-2.0003891 5.541979,-4.66326857 9.790256,-5.52055134 13.926588,-2.810322 1.867404,1.2235697 3.671079,2.9433952 4.008168,3.8218344 0.391714,1.0207901 2.798207,1.4233569 6.668538,1.1155371 7.177874,-0.5708796 11.241924,2.2596141 11.241924,7.8296785 0,3.233981 0.58657,3.696466 5.529,4.359386 6.44425,0.864355 10.6485,4.494946 10.93507,9.443027 0.16623,2.870099 0.85521,3.498115 3.83853,3.498888 2.38235,6.18e-4 4.37076,1.122448 5.76729,3.253815 1.17224,1.78908 2.9392,2.942877 3.92655,2.563995 2.81301,-1.079455 7.33689,1.993872 7.33689,4.984365 0,1.489076 -0.58738,3.804963 -1.30532,5.146415 -0.94825,1.771825 -0.76588,2.886689 0.66667,4.075605 3.1226,2.591528 2.31093,5.413782 -2.02801,7.05155 -2.74256,1.035199 -4,2.414487 -4,4.387588 0,4.529265 -3.46974,6.655729 -8.04328,4.929409 -2.95154,-1.114081 -4.37903,-1.028729 -6.22645,0.372292 -3.44197,2.610286 -7.61328,2.31182 -10.37743,-0.742526 -1.5827,-1.748864 -3.39486,-2.393847 -5.3483,-1.903564 -4.06734,1.020837 -7.75967,-2.871091 -6.91514,-7.288954 0.44632,-2.334787 -0.34399,-4.601752 -2.49576,-7.158992 -1.7319,-2.058245 -2.819185,-4.601516 -2.416186,-5.651712 0.458996,-1.196123 -0.931595,-2.924132 -3.722367,-4.625579 -5.531663,-3.372483 -18.109224,-3.845517 -19.306258,-0.726099 -1.03689,2.702095 -16.51691,2.740009 -21.712669,0.05318 -4.385503,-2.26783 -5.436166,-1.622388 -5.436166,3.339549 0,1.98822 -0.9,5.768948 -2,8.401618 -4.295109,10.279643 -0.703281,19.555882 8.658208,22.360651 4.15227,1.244051 5.242379,2.135691 4.571619,3.739294 -0.484432,1.158143 -0.90932,2.836688 -0.944195,3.7301 -0.1266,3.243183 -9.30943,-0.533933 -13.194441,-5.427185 -3.56094,-4.485081 -4.325248,-1.546969 -0.875265,3.364652 4.108118,5.848588 4.979781,6.393646 10.263282,6.417729 4.306694,0.01963 4.458803,0.1952 3.949411,4.558511 -0.50104,4.291781 -0.275076,4.579429 4.163218,5.299664 2.581157,0.418864 6.841392,0.418032 9.467189,-0.0019 4.210859,-0.673342 4.731506,-1.180672 4.412539,-4.299664 -0.1989,-1.944933 -0.604721,-6.315733 -0.901824,-9.712888 l -0.540186,-6.176646 5.263878,-1.577096 c 3.45994,-1.036622 6.025135,-2.91517 7.485223,-5.48159 1.47071,-2.585092 3.287626,-3.907344 5.376781,-3.912926 3.495519,-0.0093 3.498132,-0.09725 -0.396196,13.324903 -1.170239,4.033334 -2.161749,11.406078 -2.203356,16.383878 -0.08724,10.437069 2.437687,16.052179 9.120491,20.282789 5.42156,3.43217 4.78438,5.33333 -1.787485,5.33333 -4.052075,0 -5.920994,0.8216 -8.340749,3.66667 -3.718085,4.37161 -6.649253,4.61525 -11.320364,0.94096 z M 115.18605,80.763636 c -1.26625,-3.299794 0.0583,-8.052779 2.3667,-8.492508 2.6091,-0.497012 4.35184,3.828536 3.11392,7.728874 -0.9779,3.08108 -4.40794,3.559 -5.48062,0.763634 z m 32.17135,-0.687808 c -1.25942,-3.968081 0.45923,-8.306671 3.08986,-7.80006 1.5622,0.300851 2.21941,1.798511 2.21941,5.057567 0,5.362584 -3.84699,7.349737 -5.30927,2.742493 z"
       id="path3779"
       inkscape:connector-curvature="0" />
    <path
       style="fill:#a68d74;stroke-width:1.33333337"
       d="m 79.686143,125.37264 c -3.172135,-2.4952 -3.614779,-2.51948 -8.799814,-0.48274 -5.043829,1.98127 -5.717101,1.97594 -8.839662,-0.07 -1.859,-1.21807 -3.379999,-3.04662 -3.379999,-4.06345 0,-1.3253 -1.76057,-1.82218 -6.217687,-1.7548 -5.174512,0.0782 -6.740416,-0.51371 -9.333333,-3.52816 -1.713606,-1.99218 -3.115647,-4.71201 -3.115647,-6.04405 0,-1.77676 -1.360783,-2.63951 -5.108391,-3.23877 -6.384884,-1.02099 -9.824943,-4.70354 -9.824943,-10.51752 0,-3.246623 -0.764397,-4.837278 -2.762076,-5.74768 -1.519141,-0.692319 -3.92732,-2.84317 -5.351508,-4.779667 -2.226053,-3.026812 -2.376508,-4.166075 -1.072135,-8.118364 1.225514,-3.713343 1.128026,-5.343919 -0.506944,-8.479095 -2.591099,-4.968627 -2.563543,-5.358763 0.602086,-8.524392 2.136125,-2.136126 2.391732,-3.303 1.333333,-6.0868 -2.35184,-6.185808 -1.596836,-9.896186 2.491127,-12.242355 3.518625,-2.019414 3.700133,-2.508404 2.446858,-6.591948 -2.492557,-8.121494 2.637194,-13.769475 12.506059,-13.769475 2.640664,0 3.9132,-0.67009 3.9132,-2.060607 0,-1.133333 1.539774,-3.600379 3.421718,-5.482323 2.666185,-2.666185 4.280403,-3.24998 7.310605,-2.643939 3.0044,0.60088 4.638408,0.02826 7.184344,-2.517677 3.619577,-3.6195763 5.492026,-3.9611996 10.751445,-1.9615724 2.944181,1.1193759 4.258134,0.7620124 8.170668,-2.2222223 5.98066,-4.56167126 11.990108,-4.69093313 15.522347,-0.3338822 2.223048,2.7421516 3.559771,3.155988 8.972043,2.7776585 5.408463,-0.3780635 6.681943,0.015348 8.513313,2.6300083 1.18444,1.6910151 2.15528,4.5910691 2.15744,6.4445641 0.003,2.924158 0.60355,3.382508 4.53636,3.464594 6.9997,0.146102 11.45972,3.727907 11.45972,9.203215 0,5.975608 -2.93184,7.679084 -8.91431,5.17945 C 112.23142,31.503805 108,33.271698 108,37.885151 c 0,2.182544 -1.15255,3.602066 -3.8226,4.708038 -3.26838,1.353805 -4.47661,1.184664 -8.333338,-1.16659 -5.190587,-3.16444 -18.156322,-3.901413 -19.234085,-1.093265 -0.827346,2.15568 -17.109705,2.026324 -22.499351,-0.178748 -4.628398,-1.893621 -6.536942,-0.123499 -5.583724,5.178748 0.329591,1.833334 -0.232869,4.833334 -1.249909,6.666667 -1.01704,1.833333 -1.870425,5.929487 -1.896412,9.102564 -0.038,4.639859 0.718844,6.535322 3.866215,9.682692 2.152404,2.152404 5.752404,4.281251 8,4.73077 4.850187,0.970037 5.082531,2.118853 1.166408,5.767277 -2.028699,1.890019 -3.208706,2.253592 -3.865434,1.190983 -0.533996,-0.864023 -2.001418,-1.124261 -3.372562,-0.598105 -1.334992,0.512285 -1.990059,0.494228 -1.455704,-0.04012 1.216645,-1.216654 -4.241311,-7.169394 -6.573476,-7.169394 -2.533861,0 5.904033,11.956264 8.615102,12.207367 1.231379,0.114053 3.673207,0.07812 5.426284,-0.07984 2.935058,-0.264472 3.127298,0.08324 2.428112,4.391817 -0.755004,4.652549 -0.726578,4.683935 5.022945,5.54613 3.180236,0.476905 7.575913,0.473145 9.768174,-0.0084 4.306625,-0.945893 4.23543,-0.446675 2.316764,-16.245255 -0.45644,-3.758396 -0.09093,-4.271683 3.562025,-5.002276 2.23886,-0.447772 6.050244,-2.913107 8.469741,-5.478522 2.419499,-2.565378 5.409326,-4.664354 6.64406,-4.664354 2.4551,0 2.400631,0.555821 -1.30666,13.333333 -1.170239,4.033334 -2.161749,11.406078 -2.203356,16.383878 -0.08724,10.437074 2.437687,16.052174 9.120491,20.282794 5.42156,3.43217 4.78438,5.33333 -1.787485,5.33333 -4.052075,0 -5.920994,0.82159 -8.340749,3.66667 -3.692066,4.34102 -6.648918,4.61551 -11.195333,1.0393 z M 115.18605,80.763636 c -1.26625,-3.299794 0.0583,-8.052779 2.3667,-8.492508 2.6091,-0.497012 4.35184,3.828536 3.11392,7.728874 -0.9779,3.08108 -4.40794,3.559 -5.48062,0.763634 z m 32.17135,-0.687808 c -1.25942,-3.968081 0.45923,-8.306671 3.08986,-7.80006 1.5622,0.300851 2.21941,1.798511 2.21941,5.057567 0,5.362584 -3.84699,7.349737 -5.30927,2.742493 z"
       id="path3777"
       inkscape:connector-curvature="0" />
    <path
       style="fill:#5f5c5a;stroke-width:1.33333337"
       d="m 79.649983,125.3442 c -3.163814,-2.48866 -3.68479,-2.52692 -8.277684,-0.60788 -5.861374,2.44904 -9.677282,1.5163 -11.667595,-2.85196 -1.22531,-2.68927 -2.426232,-3.21769 -7.312663,-3.21769 -6.453908,0 -12.39204,-4.36173 -12.39204,-9.10232 0,-1.93321 -1.245998,-2.7561 -5.108391,-3.37372 -6.384884,-1.02099 -9.824943,-4.70354 -9.824943,-10.51752 0,-3.246623 -0.764397,-4.837278 -2.762076,-5.74768 -1.519141,-0.692319 -3.92732,-2.84317 -5.351508,-4.779667 -2.226053,-3.026812 -2.376508,-4.166075 -1.072135,-8.118364 1.225514,-3.713343 1.128026,-5.343919 -0.506944,-8.479095 -2.591099,-4.968627 -2.563543,-5.358763 0.602086,-8.524392 2.136125,-2.136126 2.391732,-3.303 1.333333,-6.0868 -2.35184,-6.185808 -1.596836,-9.896186 2.491127,-12.242355 3.518625,-2.019414 3.700133,-2.508404 2.446858,-6.591948 -2.492557,-8.121494 2.637194,-13.769475 12.506059,-13.769475 2.640664,0 3.9132,-0.67009 3.9132,-2.060607 0,-1.133333 1.539774,-3.600379 3.421718,-5.482323 2.666185,-2.666185 4.280403,-3.24998 7.310605,-2.643939 3.0044,0.60088 4.638408,0.02826 7.184344,-2.517677 3.619577,-3.6195763 5.492026,-3.9611996 10.751445,-1.9615724 2.944181,1.1193759 4.258134,0.7620124 8.170668,-2.2222223 5.98066,-4.56167126 11.990108,-4.69093313 15.522347,-0.3338822 2.223048,2.7421516 3.559771,3.155988 8.972043,2.7776585 5.408463,-0.3780635 6.681943,0.015348 8.513313,2.6300083 1.18444,1.6910151 2.15528,4.5910691 2.15744,6.4445641 0.003,2.924158 0.60355,3.382508 4.53636,3.464594 6.9997,0.146102 11.45972,3.727907 11.45972,9.203215 0,5.975608 -2.93184,7.679084 -8.91431,5.17945 C 112.26101,31.516169 108,33.273591 108,37.832893 c 0,1.985137 -1.1822,3.611049 -3.34069,4.59452 -2.76881,1.261557 -4.28117,1.031908 -8.834725,-1.341535 -6.376697,-3.32372 -16.758931,-3.855992 -19.013311,-0.974767 -1.846886,2.360426 -17.052775,2.402832 -22.700648,0.06331 -4.629516,-1.917687 -6.5388,-0.153662 -5.583724,5.158913 0.329591,1.833334 -0.232869,4.833334 -1.249909,6.666667 -1.01704,1.833333 -1.870425,5.929487 -1.896412,9.102564 -0.038,4.639859 0.718844,6.535322 3.866215,9.682692 2.152404,2.152404 5.752404,4.281251 8,4.73077 4.850187,0.970037 5.082531,2.118853 1.166408,5.767277 -2.028699,1.890019 -3.208706,2.253592 -3.865434,1.190983 -0.533996,-0.864023 -2.001418,-1.124261 -3.372562,-0.598105 -1.334992,0.512285 -1.990059,0.494228 -1.455704,-0.04012 1.216645,-1.216654 -4.241311,-7.169394 -6.573476,-7.169394 -2.533861,0 5.904033,11.956264 8.615102,12.207367 1.231379,0.114053 3.673207,0.07812 5.426284,-0.07984 2.935058,-0.264472 3.127298,0.08324 2.428112,4.391817 -0.755004,4.652549 -0.726578,4.683935 5.022945,5.54613 3.180236,0.476905 7.575913,0.473145 9.768174,-0.0084 4.306625,-0.945893 4.23543,-0.446675 2.316764,-16.245255 -0.45644,-3.758396 -0.09093,-4.271683 3.562025,-5.002276 2.23886,-0.447772 6.050244,-2.913107 8.469741,-5.478522 7.547294,-8.002462 9.805123,-5.833094 5.737296,5.512506 -4.055564,11.311433 -4.17458,27.516245 -0.248413,33.823145 1.597799,2.56666 4.826705,5.79794 7.175342,7.18062 3.7483,2.20667 3.9895,2.67108 1.97331,3.7994 -1.26332,0.70699 -3.774595,1.00296 -5.580612,0.65772 -2.368036,-0.45268 -4.351171,0.43979 -7.111984,3.20061 -4.526551,4.52655 -6.517582,4.73781 -11.050131,1.17251 z M 115.33334,80.000002 c -0.97587,-3.074694 0.28189,-8.000001 2.04293,-8.000001 0.65812,0 1.8388,1.2 2.62373,2.666667 1.49657,2.796358 -0.21005,8 -2.62373,8 -0.65811,0 -1.57743,-1.2 -2.04293,-2.666666 z m 32.66666,0 c -1.49656,-2.796358 0.21006,-8.000001 2.62374,-8.000001 1.76104,0 3.0188,4.925307 2.04293,8.000001 -0.46551,1.466666 -1.38483,2.666666 -2.04293,2.666666 -0.65812,0 -1.8388,-1.2 -2.62374,-2.666666 z"
       id="path3775"
       inkscape:connector-curvature="0" />
    <path
       style="fill:#161415;stroke-width:1.33333337"
       d="m 63.171227,125.26944 c -1.555827,-0.58125 -3.18411,-2.47259 -3.618407,-4.20297 -0.691896,-2.75673 -1.43745,-3.08436 -6.02352,-2.64701 -7.0849,0.67565 -10.465331,-1.45066 -12.360013,-7.77455 -1.442933,-4.81608 -2.007032,-5.31157 -6.047004,-5.31157 -5.782373,0 -9.788949,-3.9753 -9.788949,-9.712527 0,-3.449945 -0.84717,-4.879626 -3.992388,-6.737553 -4.601418,-2.718124 -6.335672,-7.7968 -4.407136,-12.906073 0.992708,-2.629986 0.872445,-4.193222 -0.463107,-6.019698 -2.419016,-3.308202 -2.275503,-7.226548 0.371819,-10.151805 1.847124,-2.04105 1.925025,-3.009851 0.515628,-6.41244 -2.186611,-5.278944 -0.892939,-9.902994 3.305782,-11.816059 2.834944,-1.291687 3.251635,-2.153624 2.527682,-5.228586 -0.476771,-2.025062 -0.860979,-3.981932 -0.853796,-4.348598 0.11748,-5.997546 0.650165,-6.936993 4.952691,-8.734703 2.543113,-1.06258 6.143113,-1.931964 8,-1.931964 1.856888,0 3.3895,-0.75 3.405806,-1.666667 0.05067,-2.84826 4.61155,-7.781756 7.355957,-7.956919 1.437917,-0.09178 3.86416,0.244604 5.391649,0.747513 2.143627,0.705765 3.121925,0.157906 4.287988,-2.401324 1.93606,-4.2491888 6.931839,-5.5079036 11.779558,-2.9679269 3.583368,1.8775161 3.997713,1.7818343 8.177968,-1.8884788 5.505132,-4.83356976 10.755113,-5.02710539 14.959748,-0.5514769 2.597456,2.7648653 3.9336,3.1836644 8.054746,2.5246668 6.993761,-1.1183479 10.435561,1.1454619 11.457451,7.5360258 0.81704,5.10946 1.0235,5.291253 6.00903,5.291253 5.99755,0 10.49626,3.64457 10.49626,8.503407 0,4.92386 -3.15228,6.83792 -7.97291,4.841147 -5.79099,-2.398707 -10.60699,-0.778392 -11.53912,3.882272 -1.16133,5.80662 -5.03118,6.810496 -12.22139,3.170348 -3.32852,-1.685112 -7.60017,-3.055647 -9.492552,-3.045633 -5.183162,0.02743 -9.440471,1.441925 -9.442545,3.137301 -0.0025,2.096992 -17.123427,1.820093 -21.10234,-0.341292 -6.082097,-3.303855 -6.7955,-1.766777 -9.063763,19.528507 -0.709277,6.658954 -0.513761,7.242232 3.910674,11.666667 2.561502,2.561503 5.917277,4.657277 7.457277,4.657277 1.911111,0 2.8,0.846562 2.8,2.666667 0,3.978914 -6.695503,3.560444 -10.666667,-0.666666 -1.722326,-1.833334 -4.226916,-3.333334 -5.565752,-3.333334 -2.989616,0 -3.035899,0.629995 -0.282733,3.848486 6.889592,8.054029 8.667831,9.484848 11.787879,9.484848 2.854264,0 3.39394,0.613364 3.39394,3.857348 0,4.529085 1.827451,5.483827 10.442383,5.455568 9.467956,-0.03105 10.095643,-0.842028 9.17268,-11.851112 -0.752057,-8.970535 -0.648095,-9.461805 2.002295,-9.461805 1.537546,0 4.952637,-2.261308 7.58909,-5.025128 2.67669,-2.806 5.780292,-4.832066 7.027987,-4.587948 2.054264,0.401931 2.021272,1.049027 -0.409169,8.02513 -6.518322,18.70956 -4.32672,34.310385 5.856156,41.686825 5.58489,4.04567 5.10364,4.66217 -3.155733,4.04266 -2.427518,-0.18209 -4.144121,0.76165 -5.697405,3.13226 -2.783052,4.24748 -8.167585,4.4784 -12.369929,0.5305 -2.280125,-2.14206 -3.487087,-2.497 -4.796296,-1.41045 -3.17178,2.63234 -8.282774,3.94959 -11.1575,2.87559 z"
       id="path3773"
       inkscape:connector-curvature="0" />
  </g>
</svg>
