<?xml version="1.0" encoding="UTF-8" standalone="no"?>
<!-- Created with Inkscape (http://www.inkscape.org/) -->

<svg
   xmlns:dc="http://purl.org/dc/elements/1.1/"
   xmlns:cc="http://creativecommons.org/ns#"
   xmlns:rdf="http://www.w3.org/1999/02/22-rdf-syntax-ns#"
   xmlns:svg="http://www.w3.org/2000/svg"
   xmlns="http://www.w3.org/2000/svg"
   xmlns:sodipodi="http://sodipodi.sourceforge.net/DTD/sodipodi-0.dtd"
   xmlns:inkscape="http://www.inkscape.org/namespaces/inkscape"
   version="1.1"
   id="svg3761"
   width="510"
   height="510"
   viewBox="0 0 509.99999 509.99999"
   sodipodi:docname="ovehiitaEsquiladaMiau.svg"
   inkscape:version="0.92.2 (5c3e80d, 2017-08-06)">
  <metadata
     id="metadata3767">
    <rdf:RDF>
      <cc:Work
         rdf:about="">
        <dc:format>image/svg+xml</dc:format>
        <dc:type
           rdf:resource="http://purl.org/dc/dcmitype/StillImage" />
        <dc:title></dc:title>
      </cc:Work>
    </rdf:RDF>
  </metadata>
  <defs
     id="defs3765" />
  <sodipodi:namedview
     pagecolor="#ffffff"
     bordercolor="#666666"
     borderopacity="1"
     objecttolerance="10"
     gridtolerance="10"
     guidetolerance="10"
     inkscape:pageopacity="0"
     inkscape:pageshadow="2"
     inkscape:window-width="1440"
     inkscape:window-height="838"
     id="namedview3763"
     showgrid="false"
     inkscape:zoom="0.69140625"
     inkscape:cx="51.542545"
     inkscape:cy="271.27374"
     inkscape:window-x="-8"
     inkscape:window-y="-8"
     inkscape:window-maximized="1"
     inkscape:current-layer="g3771"
     units="px" />
  <g
     id="g3771"
     transform="translate(0.72316832,343.6723)">
    <path
       id="path3785"
       style="fill:#f4b4cc;stroke-width:4.11074209"
       d="m 243.51248,-245.18096 c 0.63394,-0.003 -9.52143,0.23605 -11.26047,0.27772 -0.083,0.10093 -0.0163,0.0434 -0.84679,0.9298 -0.45534,0.46354 -0.8709,0.97226 -1.36927,1.38866 -0.0489,0.0408 -0.0769,-0.19179 -0.12011,-0.14492 -1.22452,1.33002 -1.72231,2.97673 -2.59441,4.52219 h 5.81941 5.36299 6.30587 3.20097 c 0.2257,-1.05192 0.46562,-2.50777 0.67863,-4.19616 -0.1137,-0.95246 -0.22471,-1.83168 -0.35432,-2.57807 -1.53711,-0.0769 -3.11146,-0.14539 -4.82249,-0.19924 z m -34.85642,0.67622 c 0.0555,2.0995 0.0364,4.19841 0.042,6.29726 h 0.16214 c 0.0846,-0.4184 0.16761,-0.83744 0.25223,-1.25583 0.19584,-0.53242 0.4535,-1.0488 0.58855,-1.59998 0.0372,-0.15199 -0.22647,0.51801 -0.28827,0.37433 -0.15574,-0.36201 -0.18898,-2.31315 -0.2162,-3.81578 -0.18031,0.002 -0.36019,-0.002 -0.5405,0 z m 18.69539,6.12217 c -0.0277,0.0655 -0.0451,0.0975 -0.0781,0.17509 h 0.006 c -0.0154,0.0368 0.11558,-0.2781 0.0721,-0.17509 z m 87.89175,16.76653 c -7.10194,0.0356 -14.2049,0.0114 -21.30781,0.006 -6.05322,-0.0618 -12.10766,0.0524 -18.16089,0 -4.97513,9.7e-4 -9.94876,-3e-5 -14.92389,0 -3.05835,-5e-5 -6.11818,-3e-5 -9.17653,0 -2.28834,1e-5 -4.57605,0 -6.86439,0 h -6.30587 -5.36298 -7.48297 c 0,1.03239 1e-5,2.06491 0,3.09731 0.0151,0.30985 0.0289,0.61991 0.042,0.92979 -0.005,1.39271 -0.0108,2.78576 -0.024,4.17805 0.0521,2.56091 1.99884,6.08032 -0.0181,7.6014 -1.5e-4,0.10668 1.1e-4,0.2133 0,0.31999 -6e-5,1.42116 3e-4,2.84149 0,4.26258 l 1.27919,8.03007 c 2.68009,16.84979 17.98272,36.93366 35.93743,47.41966 1.82092,0.0349 3.59051,0.60708 5.30294,1.25583 0.20577,0.0473 0.25435,0.0446 0.37835,0.0785 0.0605,0.0167 0.0939,0.0533 0.16214,0.0966 0.73503,0.18254 1.46959,0.37074 2.20405,0.55546 0.17631,0.0677 0.70338,0.27661 0.52849,0.20529 -0.24611,-0.10037 -0.98848,-0.38656 -0.73869,-0.29583 0.98133,0.35628 2.01896,0.58787 2.93673,1.08677 0.97251,0.52866 1.76986,1.3351 2.6785,1.96828 0.0749,0.0522 -0.11205,-0.14514 -0.16817,-0.21735 l 1.04498,0.73659 c 0.49478,0.41698 1.07208,0.74947 1.48338,1.24979 0.0513,0.0624 0.28193,0.41529 0.38435,0.55547 0.55964,0.3158 1.11164,0.64273 1.66355,0.97206 0.40767,0.24325 0.80856,0.4942 1.21313,0.74263 1.21541,0.7126 2.3057,1.8947 3.67542,2.37279 0.0995,0.0348 -0.14397,-0.15234 -0.2162,-0.22943 0.53743,0.21447 1.1091,0.35474 1.6095,0.64603 0.26807,0.15605 0.51095,0.35278 0.76871,0.52527 1.66404,-0.0339 3.33846,-0.10736 3.32109,1.17734 -0.004,0.26431 -0.0252,0.43264 -0.0301,0.68829 9.28055,0.4843 18.55611,1.13026 27.82389,1.80526 0.76041,0.0469 1.65754,0.0694 2.2461,0.10869 1.65993,0.11073 4.49157,-1.23087 4.97862,0.36829 0.003,0.01 0.003,0.0204 0.006,0.0303 0.48199,0.0362 0.96542,0.0662 1.44734,0.10263 -0.23184,1.30943 -0.37648,2.64782 -0.50446,3.99088 1.99592,0.004 3.99166,0.009 5.98758,0.0121 5.00658,0.13833 10.01405,0.2494 15.01996,0.41056 1.13105,0.0364 2.26202,0.0883 3.39317,0.13283 -0.25829,-0.63867 -0.52919,-1.27181 -0.79276,-1.9079 -0.22324,-0.87404 -0.44942,-1.74631 -0.67263,-2.62034 0.0246,0.16171 0.10239,0.36901 0.0901,0.47698 -0.0514,0.4555 -0.32569,-0.85874 -0.47446,-1.29206 -0.64436,-1.87692 -1.18726,-3.77308 -1.92778,-5.61501 -1.96945,-3.55067 -2.77223,-7.57298 -3.8916,-11.44133 -0.57181,-1.97596 -0.22601,-1.42437 -0.81078,-2.24601 -0.40296,-1.77483 -0.80414,-3.55036 -1.2071,-5.3252 -0.33611,-0.41474 -0.47547,-1.02754 -0.69667,-1.52752 -0.60855,-1.37551 -1.10834,-2.792 -1.66353,-4.19013 -0.17527,-0.48768 -0.37317,-0.97274 -0.52851,-1.46715 -0.19679,-0.62584 -0.37363,-1.2585 -0.55249,-1.88978 -0.0802,-0.16801 -0.14452,-0.31739 -0.20417,-0.47094 -0.23031,-0.44455 -0.46111,-0.88934 -0.69065,-1.33432 -0.0277,-0.0229 -0.087,-0.0813 -0.11407,-0.10263 -0.0882,-0.19938 -0.19126,-0.39335 -0.28228,-0.59168 -0.3782,-0.65841 -0.84647,-1.50292 -1.111,-1.91998 0.10239,0.10072 0.21923,0.19108 0.32427,0.28981 -0.1931,-0.39544 -0.37572,-0.79462 -0.57051,-1.18941 -0.80743,-1.00759 -1.77841,-2.46552 -2.17402,-3.27241 -1.01369,-2.06732 -1.74953,-4.26767 -2.36623,-6.4965 -0.0123,-0.0319 -0.0535,-0.12202 -0.0661,-0.15095 -0.11593,-0.14542 -0.20541,-0.31098 -0.31831,-0.45886 0.26136,0.6706 0.49969,1.19348 0.63059,1.66035 0.0812,0.28968 -0.32059,-0.50765 -0.45041,-0.77886 -0.28073,-0.58678 -0.54665,-1.1804 -0.81075,-1.77506 -2.49555,-3.56977 -4.17895,-7.75012 -4.87054,-12.37114 -0.0215,-0.13614 -0.0246,-0.27404 -0.0421,-0.41056 -0.30226,-0.8392 -0.60261,-1.68156 -0.94288,-2.50562 -0.0246,-0.056 -0.14513,-0.004 -0.16819,-0.0604 -0.84614,-2.08543 -1.38802,-3.7425 -2.07193,-5.77199 -1.01975,-2.72696 -1.71227,-5.16723 -2.40823,-8.10252 -0.19833,-0.83648 -0.28289,-1.69911 -0.48045,-2.53581 -0.0215,-0.0889 -0.1356,-0.132 -0.1682,-0.21735 -0.1482,-0.38923 -0.24383,-0.79125 -0.36633,-1.18941 -0.15221,-0.5673 -0.30472,-1.13521 -0.45641,-1.70262 -0.59335,-0.45671 -0.74011,-1.32076 -1.06301,-2.0045 -1.10799,-2.3462 -1.51046,-3.35749 -1.86173,-4.46785 z m 22.89932,57.46027 c 0.0541,0.10454 0.10792,0.20943 0.16204,0.31396 -0.0744,-0.26004 -0.14821,-0.52051 -0.22815,-0.77886 -0.0154,-0.0545 -0.0879,-0.19537 -0.0959,-0.13886 -0.0185,0.12319 0.0649,0.35366 0.16205,0.60376 z m 0.16204,0.31396 c 0.0154,0.0521 0.0277,0.10488 0.0421,0.15697 0.37396,0.78368 0.8632,1.58957 0.61857,1.123 -0.22293,-0.42509 -0.43949,-0.85395 -0.66064,-1.27998 z m -69.58672,19.50159 c -0.0683,-0.017 -0.13591,-0.0373 -0.2042,-0.0543 0.10562,0.0406 0.21315,0.08 0.31829,0.12075 0.041,0.0158 -0.0664,-0.0361 -0.1141,-0.0664 z m -0.2042,-0.0543 c -0.11088,-0.0426 -0.2249,-0.0786 -0.33632,-0.12074 -0.55277,-0.12709 -1.34791,-0.30857 -1.01494,-0.21735 0.44764,0.12266 0.90104,0.22538 1.35126,0.33811 z m -59.99571,-76.68412 c -0.004,0.23544 -0.008,0.47096 -0.012,0.70641 0.12422,-0.38648 -0.0978,0.2542 0.19817,-0.63395 -0.009,0.078 -0.0154,0.0888 -0.17416,0.1932 -0.0111,-0.0881 -0.009,-0.17707 -0.012,-0.26566 z m 294.27976,3.24222 c -0.20847,0.0142 -0.41621,0.0346 -0.62459,0.0483 1.18237,2.30969 -0.9383,2.96884 -5.36299,5.43388 -0.85334,0.18427 -2.92776,0.6358 -3.42318,0.68829 -0.2875,0.0306 0.56039,-0.16743 0.81677,-0.3019 0.39783,-0.20869 0.91893,-0.83062 1.16507,-1.11696 0.12976,-0.15095 -0.27674,0.28492 -0.41437,0.42867 -5.91455,2.71521 -4.16874,3.02747 -7.48898,2.92222 -0.34755,-0.0111 -0.6979,-0.0328 -1.04496,-0.0543 -0.22631,-0.0142 -0.88823,-0.0198 -0.67262,-0.0906 0.15436,-0.0507 0.31649,-0.0771 0.47442,-0.11471 0.60682,-0.3375 -0.27028,0.16331 -1.075,0.28377 -0.30226,0.0453 -0.60941,0.0535 -0.91284,0.0906 -0.45978,0.39341 -0.92959,0.76715 -1.47138,1.0264 -2.57249,1.23096 -4.69814,1.26203 -7.29677,1.21356 -2.08816,0.005 -4.17572,0.005 -6.26383,-0.0121 -2.57971,-0.002 -5.16496,0.19453 -7.73521,-0.10869 -0.7149,-0.1465 0.47341,-0.1243 -0.0541,-0.13886 -2.01945,-0.0557 -3.93761,1.4113 -5.98156,1.04451 -2.56468,3.4e-4 -5.13462,0.0257 -7.69917,0 -2.06087,-0.0309 -4.1186,-0.0542 -6.17974,-0.0362 -0.82344,0.007 -2.46757,0.86408 -2.46831,0.0362 v -0.006 c -0.66294,0.0748 -1.33191,0.10779 -1.99383,0.18717 -2.24225,-0.70569 -3.74497,-1.13796 -4.79847,-1.59997 -2.9523,1.93859 -5.61436,3.42932 -8.10155,4.70936 -0.009,1.42284 -0.0314,2.84564 -0.0246,4.26862 0.051,8.93429 -0.14145,12.42018 -13.46451,18.08274 -0.40748,7.07049 -1.15722,14.12125 -2.04192,21.14987 -0.22754,1.60792 -0.44561,3.21782 -0.68462,4.82408 -0.0766,0.51365 -0.24076,1.01472 -0.26413,1.53356 -0.003,0.0904 0.003,0.1813 0,0.27169 0.13376,1.43285 0.19833,2.8721 0.18603,4.32296 -0.0123,1.48157 -0.15005,2.9661 -0.24015,4.44974 -0.009,0.43106 -0.0246,0.86144 -0.0421,1.29206 0.0123,0.0548 0.0378,0.15447 0.048,0.19923 0.34018,1.50947 0.56618,3.04266 0.84682,4.56446 0.13622,3.71135 0.67229,10.61296 -1.89178,14.05563 19.84552,-1.3599 39.69959,-2.62274 59.56943,-3.55617 0.0679,-0.56397 0.18019,-1.1064 0.51648,-2.28223 0.13407,-0.46846 0.068,-1.25009 0.5405,-1.35847 0.0185,-0.004 0.0215,0.0158 0.036,0.0182 0.15743,-0.69982 0.31643,-1.22942 0.6606,-2.04676 0.15005,-0.83449 0.34143,-1.71551 0.52851,-1.99243 0.16727,-0.24748 -0.22539,1.17166 -0.13222,0.88754 1.65163,-5.03766 0.0916,-2.0421 2.24609,-5.62105 -0.039,0.1154 -0.2343,0.36622 -0.11408,0.35018 0.13684,-0.0182 0.13684,-0.24483 0.21033,-0.36225 0.61853,-0.98987 1.22213,-1.98625 1.86776,-2.95845 0.0154,-0.025 0.0563,-0.0773 0.0781,-0.10869 0.0735,-0.35728 0.12545,-0.68767 0.24015,-1.08073 0.25644,-0.87905 1.72997,-3.41441 2.21005,-4.24447 0.25521,-0.44145 0.55145,-0.85818 0.82877,-1.28602 0.55907,-0.75904 1.08902,-1.5433 1.68158,-2.27619 1.33925,-1.65639 2.86601,-2.8698 3.99972,-4.72144 0.88685,-1.44851 1.55314,-3.02304 2.4743,-4.44974 0.50287,-0.77885 1.19034,-1.42572 1.78367,-2.13733 1.47787,-1.47498 3.00829,-2.98529 4.22191,-4.69728 3.16289,-4.46171 0.79934,-2.09597 5.37501,-8.40441 0.34539,-0.47623 0.89158,-0.7605 1.33925,-1.14111 -0.0308,0.22934 -0.0756,0.45735 -0.0901,0.68829 -0.0123,0.18307 -0.0489,0.72191 0.0123,0.54943 0.41298,-1.14609 0.58382,-2.37696 1.05095,-3.50184 0.67949,-1.63636 1.48073,-3.22512 2.37822,-4.75162 0.37234,-0.6333 0.87705,-1.17308 1.40531,-1.69658 0.20017,-1.49378 0.39459,-2.99058 0.62459,-4.47993 0.43196,-2.79748 0.86041,-4.99229 1.6215,-6.46632 0.29457,-8.02208 -0.003,-15.41563 -0.98491,-20.41931 z m -17.04985,6.91914 c -0.1436,0.11153 -0.27551,0.24325 -0.4144,0.36226 0.12668,-0.0813 0.25029,-0.16424 0.37836,-0.24152 0.0344,-0.0207 0.0246,-0.0822 0.036,-0.12075 z m -54.43466,2.39091 c -0.003,0.002 -0.009,0.004 -0.0123,0.006 -0.87053,0.86621 -1.72992,1.74213 -2.59442,2.6143 1.03558,-0.76304 2.0751,-1.52527 3.1109,-2.28827 -0.19341,-0.10207 -0.36305,-0.22019 -0.50446,-0.33207 z m -106.70125,12.32887 c -0.19894,0.0736 0.1519,1.28281 0.56451,2.57807 -0.0799,-0.75708 -0.15681,-1.51275 -0.2343,-2.27015 -0.17004,-0.23729 -0.27489,-0.32836 -0.3303,-0.30792 z m 4.76843,14.23676 c -0.10208,-0.21401 0.12208,0.45862 0.24015,0.66414 0.071,0.12366 0.15467,0.24007 0.22815,0.36226 -0.15405,-0.34313 -0.30656,-0.68685 -0.46842,-1.0264 z m 0.58856,0.47094 c 0.10455,0.24437 0.42618,1.1474 0.72665,1.9079 0.12392,0.19178 0.24353,0.38711 0.36637,0.57961 -0.19494,-0.4526 -1.16974,-2.66703 -1.09302,-2.48751 z m 2.38422,5.6452 c -0.17189,-0.20208 -0.10701,-0.10303 0.54649,1.04451 -0.33254,-0.75202 -0.10485,-0.24384 -0.37233,-0.85131 -0.0575,-0.0663 -0.13591,-0.14822 -0.17404,-0.1932 z m 8.8222,18.40274 c 0.0415,0.51958 0.14298,1.03932 0.28843,1.5396 0.009,0.0309 0.0464,0.0912 0.06,0.1268 -0.0277,-0.11852 -0.051,-0.23769 -0.0781,-0.35622 -0.0895,-0.43558 -0.30564,-1.75351 -0.27028,-1.31017 z m 131.18603,15.70391 c -0.0689,0.15741 -0.1273,0.31815 -0.19218,0.47698 0.13222,1.0156 0.0864,0.57112 0.19218,-0.47698 z m -186.86984,8.1146 c 0.42337,0.12321 0.96702,0.1464 1.52542,0.15094 -0.0454,-0.0139 -0.0365,-0.0154 -0.0841,-0.0303 -0.45938,-0.14106 -1.90272,-0.25503 -1.44134,-0.12075 z m 3.02081,0.6581 c 0.45391,0.32409 0.92157,0.62709 1.38129,0.94187 -0.57771,-0.53167 -0.89123,-0.74102 -1.38129,-0.94187 z"
       inkscape:connector-curvature="0"
       inkscape:export-xdpi="96"
       inkscape:export-ydpi="96" />
    <path
       id="path3783"
       style="fill:#f1c9a1;stroke-width:4.11074209"
       d="m 330.26319,-278.63555 c -0.0341,0.006 -0.068,0.0121 -0.10209,0.0182 0.52383,1.18914 1.08214,2.36268 1.77164,3.45957 0.059,0.0941 0.20079,0.23735 0.28843,0.35018 0.0363,0.0155 0.0941,0.0498 0.13221,0.0664 0.006,0.0111 0.0344,0.11154 0.0421,0.13284 -0.059,-0.0703 -0.12299,-0.13339 -0.17404,-0.19924 -2.02399,-0.86087 -1.65809,-0.51289 -2.28812,-3.77352 -1.08829,0.1889 -2.17415,0.39048 -3.26704,0.55546 -3.06404,1.6328 -5.55369,2.38144 -9.42279,2.94637 -3.48766,0.50924 -3.59264,0.67761 -4.68433,0.33811 -0.2875,0.13039 -0.56793,0.27593 -0.85881,0.39848 -1.7555,0.73965 -6.56237,1.11951 -7.48898,1.20753 -0.27151,0.0257 -0.53878,-0.0385 -0.81075,-0.0604 -1.00462,-0.0263 -0.92,-0.0595 -2.19803,0.13283 -0.82766,0.12455 -1.63822,0.40363 -2.47431,0.44075 -0.0852,0.004 0.15713,-0.0628 0.24015,-0.0966 -1.55708,0.53095 0.33469,0.12652 -7.53103,1.38866 -0.74438,-0.0346 -1.49016,-0.0602 -2.23407,-0.10263 -0.38419,0.1255 -0.76574,0.25898 -1.15307,0.37433 -4.4006,1.31034 -8.96157,1.33259 -13.49456,1.23772 -11.31076,8e-5 -22.6208,3.5e-4 -33.93156,0 -1.28948,-5e-5 -2.57844,2e-5 -3.8676,0 1.36302,4.92026 2.27265,9.89258 1.9338,14.92505 -0.13404,1.99069 -8.86245,4.41565 -9.00238,4.43163 -2.07107,0.39509 -4.13331,0.8543 -6.21578,1.18338 -0.44519,0.0704 -0.90062,0.008 -1.35126,0.0121 -2.41113,0.0198 -4.82063,0.06 -7.23072,-0.0423 -0.25165,-0.0114 -0.70196,-0.0204 -1.03296,-0.0362 -0.30558,0.0385 -0.7617,0.0947 -1.14707,0.0966 -0.48359,0.26674 -0.96163,0.54118 -1.46536,0.76678 -0.76449,0.34237 -1.40879,0.57983 -2.01188,0.78489 -0.0756,0.0519 -0.13892,0.1192 -0.21619,0.16906 -2.68917,1.7349 -6.35056,2.28796 -9.41075,3.21203 0.74322,-0.53064 3.06567,-1.95559 2.22807,-1.59394 -1.59857,0.6902 -2.97829,1.81983 -4.54023,2.59015 -1.77153,0.87369 -3.66566,1.16528 -5.41704,2.0045 l 2.00587,2.42109 c 1.87961,2.41089 0.8776,1.07958 3.72947,5.61501 0.0274,0.0437 0.11072,0.17101 0.0841,0.12681 -0.38974,-0.6462 -1.58767,-2.56508 -1.1771,-1.93205 0.76792,1.18401 1.49753,2.38989 2.24609,3.58636 0.6234,2.13477 0.29841,1.04585 0.65461,2.28223 1.10116,1.16942 2.12666,2.39238 2.88869,3.80976 0.74772,1.39077 0.84982,2.97418 0.78673,4.60068 0.29048,1.29862 0.57849,2.59556 0.69665,3.91843 0.0743,0.83219 0.0476,1.65963 -0.0301,2.48148 0.40019,-0.77003 0.0592,-0.73137 0.70866,-0.58566 1.29961,-3.30903 -0.17523,-0.076 4.10783,-5.19841 0.34981,-0.41837 -0.7939,0.74923 -1.25517,1.03847 -0.26924,0.16882 0.45225,-0.44066 0.67262,-0.67017 0.31871,-0.33193 0.53274,-0.59582 0.75671,-0.84527 0.002,-1.36867 0.007,-2.73751 0.006,-4.1056 -2.6e-4,-0.45935 2.2e-4,-0.91723 0,-1.37658 -0.002,-3.094 -0.0744,-2.45144 1.27919,-4.44371 -0.0169,-0.28832 0.0148,-0.54772 0.024,-0.82112 -0.15912,0.20173 -0.0808,0.0401 0.006,-0.13886 0.10996,-2.00665 1.09295,-3.52055 5.14078,-3.36901 1.56981,0.0588 3.59431,0.36461 6.19777,0.98414 1.45374,0.34593 1.10869,1.99936 0.57053,3.84598 0.65338,-1.33719 0.60554,-1.71167 0.95488,1.83544 0.009,0.14498 -0.006,0.28978 0,0.43471 5.13469,2.42147 4.19402,5.27625 3.78353,8.80289 -0.16223,0.29225 -0.49555,0.83317 -0.78674,1.35243 -0.0651,0.49064 -0.08,0.81227 0.13813,0.37433 -0.001,1.29035 2.9e-4,2.62143 -0.11411,3.88825 -0.45186,-1.19377 0.21773,0.51382 0.30029,1.97431 0.0734,1.29781 -0.40513,2.51157 -0.65461,3.75541 -0.12459,0.62124 -0.22034,1.25368 -0.33031,1.87771 -0.0843,0.4783 -0.20595,0.90499 -0.3183,1.34639 0.2781,0.63817 0.45813,1.31833 0.46844,2.10714 0.19384,14.82751 16.22879,41.78905 30.30419,50.95772 6.05817,3.94627 11.19974,8.67339 13.41048,12.03906 2.89894,0.16397 5.73086,0.77026 8.51592,1.58187 10.55249,3.07514 10.50993,12.7361 2.0419,12.95678 -0.60427,3.23417 -4.28553,5.09469 -8.85223,3.32674 -0.0783,0.10656 -0.15664,0.21302 -0.23422,0.32 -1.6905,2.00843 -3.68381,3.71577 -5.52514,5.57878 l -1.35726,0.88754 -0.006,0.006 c -0.32169,0.30678 -0.7662,0.68211 -0.97891,0.89961 -0.26576,0.27172 -0.56707,0.50475 -0.8588,0.74867 l -0.006,0.006 c -0.0527,0.0711 -0.50362,0.59875 -0.76271,0.89961 0.035,-0.0581 0.21536,-0.25485 0.14415,-0.21132 l -2.30014,1.66639 c 6.42629,4.87236 4.64746,7.05598 -2.10196,15.341653 0.003,0.0587 0.028,0.06207 0.0181,0.150946 -0.0326,0.29024 -3.3146,4.754077 -3.50126,5.011246 -0.051,0.282419 -0.007,0.597043 -0.15015,0.845269 -3.24063,5.611515 -2.69567,4.277813 -4.26396,6.38179 -0.002,0.0029 -0.004,0.0093 -0.006,0.01206 -0.19012,0.255277 -0.41743,0.565833 -0.68464,0.947911 -0.10888,0.415841 -0.25454,1.001499 -0.38436,1.503373 0.005,0.478112 -0.008,0.958113 -0.036,1.43696 0.0661,-0.196543 0.15728,-0.431684 0.20421,-0.585651 0.10445,-0.740703 0.0169,-0.332571 0.23421,-1.714692 0.0782,-0.497337 -0.10701,1.002917 -0.16214,1.503373 -0.0135,0.04779 -0.0552,0.155893 -0.0721,0.211319 -0.20125,1.426951 -0.44677,3.130969 -0.45643,3.302591 0.13481,0.108967 -0.0286,0.571579 -0.012,0.821119 0.21589,2.728294 0.0776,5.462977 0.0841,8.193085 1.09357,2.752572 -1.05489,4.82346 -1.41131,7.263285 -0.0505,0.345434 0.1844,-0.682374 0.34832,-0.990172 0.0289,-0.05422 0.10282,0.09583 0.0961,0.156975 -0.37299,3.382388 -0.52654,4.3079 -0.82877,5.415767 -0.01,0.04748 -0.0123,0.0643 -0.0181,0.0966 -0.23913,0.817292 -0.48154,1.633989 -0.72067,2.451284 0.44529,-1.485907 0.57124,-1.934105 0.73869,-2.547886 0.0516,-0.254227 0.14341,-0.68435 0.0841,-0.519239 -0.75854,2.110846 -1.48484,4.23099 -2.21606,6.351604 -0.003,0.452661 0.003,0.905728 -0.006,1.35847 -0.005,0.241799 -1e-5,0.963645 -0.036,0.724517 0.0894,1.365626 0.36621,2.820617 0.24624,4.153915 -0.74097,8.230764 -0.60856,6.089902 -5.09875,13.530336 -9.81294,4.53224 -9.97746,5.648808 -13.80084,5.808195 -0.31206,0.157036 -0.7373,0.356331 -1.06899,0.513213 0.56015,-0.339886 0.39736,-0.276978 0.73868,-0.507155 -0.0346,9.59e-4 -0.0849,-8.34e-4 -0.1201,0 -0.55831,0.33123 -1.12106,0.658349 -1.66955,1.008281 0.34732,-0.161982 0.71263,-0.340534 1.02695,-0.489039 -0.82197,0.498035 -1.6716,0.975853 -2.11997,1.147141 -0.11675,0.07172 -0.24307,0.122723 -0.36033,0.193204 -0.68679,0.594329 -1.47455,1.22433 -1.1771,0.845278 0.12917,-0.164765 0.22164,-0.274814 0.3183,-0.392468 -0.26038,0.142508 -0.51879,0.289343 -0.78673,0.416611 -0.13601,0.139107 -0.28501,0.288416 -0.37235,0.386409 0.0688,-0.04111 0.13526,-0.08594 0.2042,-0.126742 0.11795,-0.07017 -0.41437,0.350489 -0.3243,0.247611 0.0249,-0.02782 0.0924,-0.08965 0.1201,-0.120869 -1.08486,0.648179 -2.15824,1.309866 -3.23701,1.968276 1.05998,-0.69906 2.10996,-1.412681 3.16494,-2.119223 -0.0479,0.02164 -0.0899,0.05286 -0.13812,0.07234 -0.77209,0.315186 -1.56211,0.51683 -2.35419,0.700359 -3.57357,2.534659 -5.81806,4.194395 -6.04763,4.522194 0.67845,-0.288725 1.523,-0.670374 2.40224,-1.074681 2.85742,-1.60465 6.48781,-3.853057 0.92486,-0.416611 -0.37787,0.175275 -0.58597,0.260903 -0.92486,0.416611 -1.47375,0.827595 -2.66162,1.445047 -2.40224,1.074681 -2.4713,1.051373 -4.09779,1.433547 -6.64218,1.648298 -0.0674,0.03586 -0.13043,0.07945 -0.19817,0.114686 -2.70997,1.410302 -6.96476,1.409992 -9.48883,1.714668 -0.10611,0.01237 0.21223,-0.02164 0.3183,-0.03617 0.65004,-0.08099 1.30917,-0.12025 1.95181,-0.247611 0.39558,-0.07852 0.76879,-0.245756 1.15308,-0.368325 1.33439,-2.252766 -0.0704,0.160437 -7.34484,1.606041 -0.78099,0.155182 -1.7718,0 -2.57639,0 h -0.8953 c -3.01856,3e-5 -6.03787,2.47e-4 -9.05643,0 -2.84217,-2.17e-4 -5.68577,5.56e-4 -8.52793,0 -2.03727,-0.0019 -4.07648,-0.01237 -6.11369,0.0062 -1.54181,0.0093 -3.09641,0.02473 -4.63031,-0.07852 -3.09668,0.161673 -6.11489,0.53513 -9.20056,-0.211443 -1.4689,-0.354477 -2.87647,-0.929299 -4.3,-1.443007 0.16924,0.07945 0.16992,0.08779 0.35433,0.174966 -0.43685,-0.171257 -1.75566,-0.663295 -1.30922,-0.519241 0.32133,0.103867 0.63685,0.229372 0.95489,0.344151 -3.13868,-1.475774 -4.03332,-1.86444 -6.02961,-3.308621 -0.30983,-0.162601 -0.65428,-0.350829 -0.84678,-0.440754 0.19211,0.08037 0.38403,0.161983 0.57653,0.241428 -0.46014,-0.336516 -0.8751,-0.637266 -1.51941,-1.122998 -0.59438,-0.448111 1.08954,0.83177 1.84371,1.255831 0.13693,0.05626 0.27142,0.119014 0.40838,0.174966 -2.46525,-1.955571 -5.00668,-3.821093 -7.61508,-5.578792 -0.01,-0.0062 -0.0203,-0.0062 -0.0301,-0.01236 -0.0573,-0.0371 0.15174,0.147454 0.16213,0.169093 -0.0746,-0.07265 -0.1312,-0.12767 -0.19217,-0.187331 -0.4344,-0.215153 -0.86882,-0.430769 -1.30322,-0.646015 0.26829,0.124579 1.03742,0.557388 0.80475,0.374323 -2.13138,-1.676986 -4.39528,-3.189484 -6.52207,-4.872374 -0.27597,-0.218244 -0.45248,-0.535254 -0.66662,-0.815076 -0.89819,-1.173757 -1.79,-2.352336 -2.67248,-3.538056 -0.54202,-0.386903 -1.08151,-0.776095 -1.60349,-1.189429 -0.46665,-0.369485 -0.96921,-0.729896 -1.30922,-1.219585 -3.93045,-5.660432 -7.84971,-12.911992 -2.97877,-4.135785 -0.307,-0.419269 -0.65096,-0.810284 -0.91886,-1.25583 -0.0843,-0.140034 0.46239,0.453707 0.36034,0.326037 -0.63505,-0.79455 -1.33957,-1.527398 -1.96383,-2.330542 -0.91509,-1.177281 -1.69482,-2.436048 -2.48631,-3.689003 -0.57996,-0.430831 -0.86467,-0.640141 -1.29721,-0.959964 -0.10135,-0.116541 -0.0862,-0.09985 -0.16214,-0.187331 -1.59184,-1.215254 -3.40908,-2.663516 -4.46215,-3.532025 -0.76826,1.737024 -1.59156,3.472555 -2.61844,5.258779 -2.88689,5.022146 -5.195553,7.476061 -8.593988,11.948501 -1.010245,1.329526 -1.763383,2.877265 -2.960755,4.039182 -2.547903,2.472494 -5.465149,4.52782 -8.197627,6.792333 -0.799642,0.614421 -1.368239,1.054619 -1.993853,1.539609 0.991996,0.546722 1.953969,1.118052 2.858657,1.720726 11.184292,7.450682 11.669477,9.0048196 9.662989,31.250864 -1.161519,12.877845 -4.890175,29.674004 -8.287708,37.324722 -4.930047,11.101321 -7.678575,19.287478 -8.461871,26.499204 0.253737,0.03555 0.574771,0.142508 1.111033,0.362266 2.307781,-0.137252 3.815766,0.186095 5.867458,0.851306 2.408633,0.0062 4.8087,0.521993 7.158659,1.092797 0.341079,0.06028 0.412388,0.05966 0.618576,0.09057 0.09381,0.0405 0.381307,0.145599 0.282272,0.120869 -0.2978,-0.07357 -0.601114,-0.138489 -0.900839,-0.211443 -0.616371,-0.108504 -1.479198,-0.273269 -1.117038,-0.169093 2.356066,0.677762 4.752658,1.207823 7.12863,1.81127 1.963532,0.913564 0.452869,0.200315 2.510335,1.521494 0.06814,0.02782 0.136462,0.05101 0.204201,0.07852 0.01876,-0.01855 0.0034,-0.04606 0.04806,-0.05441 0.416499,-0.07666 1.166819,0.310581 1.711589,0.688303 -0.0732,-0.02473 -0.31456,-0.06152 -0.39637,-0.08439 0.22514,0.109431 0.45406,0.20897 0.67863,0.319977 -0.0974,-0.08006 -0.15033,-0.141889 -0.27624,-0.229372 0.32269,0.104176 0.57827,0.218862 0.85279,0.374353 0.25313,0.04884 0.34451,0.05935 0.51648,0.09057 0.21853,0.112214 0.43654,0.225045 0.65461,0.338124 3.68658,0.779156 1.68702,-0.0031 2.40224,1.11697 0.15654,0.04822 0.26545,0.08099 0.46843,0.150854 0.40168,-0.01546 0.8054,-0.02782 1.20713,-0.04235 2.48741,0.04266 4.97124,0.04451 7.45894,0.03617 l 4.37807,0.893563 c 0.12453,-0.0062 0.24839,-0.02473 0.37235,-0.03617 2.67705,-0.225663 5.36605,-0.05101 8.04748,-0.05441 1.81821,-0.02473 3.63477,-0.01546 5.45307,-0.01237 1.82053,0.0015 3.63856,0 5.45908,0 1.83462,3.4e-4 3.67251,6.2e-5 5.50713,0 h 2.20405 c 1.83513,-0.68379 2.41206,-0.735662 6.66619,-0.990166 0.1151,-0.0062 0.23234,0.0014 0.34833,-0.0062 1.48909,-0.374291 3.0005,-0.554512 4.52821,-0.652073 2.57302,-0.840208 4.02181,-1.345106 5.24288,-1.563752 0.12936,-0.07759 0.17969,-0.114377 0.31229,-0.193205 -0.005,-0.034 -0.0135,-0.06801 0.012,-0.132924 0.30835,-0.780918 1.42242,-0.914492 2.21006,-1.195458 0.49496,-0.176512 1.00445,-0.307272 1.5074,-0.458868 0.13179,-0.08625 -0.0697,0.05101 2.01787,-1.322231 -1.59415,-0.308818 -0.0312,-0.906114 2.42026,-1.473178 0.20666,-0.157345 0.38349,-0.351848 0.60656,-0.48907 0.73318,-0.450955 1.63341,-0.843423 2.56438,-1.201486 0.31442,-0.150545 0.66566,-0.314599 0.86481,-0.386409 0.12035,-0.04328 0.24553,-0.07264 0.36634,-0.114686 0.50205,-0.29058 1.00595,-0.583911 1.50741,-0.875449 3.62127,-2.105343 6.12466,-2.934732 7.78924,-2.813554 1.56242,0.113759 2.36107,1.093848 2.66648,2.632436 0.22053,-0.133852 0.49026,-0.25843 0.79274,-0.368294 0.003,-0.614422 -0.0148,-1.227421 -0.024,-1.841503 -0.75937,-1.127758 -1.32666,-2.399478 -1.69958,-3.707117 -0.23409,-0.820857 -0.2483,-1.741871 -0.006,-2.559946 0.56149,-1.886636 4.0995,-7.634643 0.3303,-1.32829 -0.003,0.622274 -0.39094,0.581098 -0.13812,-0.223499 0.49792,-1.582547 0.48616,-3.567515 1.71759,-4.673141 0.65756,-0.590371 1.44383,-1.049827 2.27012,-1.424891 -0.30278,-0.385915 -0.57949,-0.795571 -0.90685,-1.159228 -3.88587,-4.316779 -5.33813,-6.165855 -3.95768,-6.955367 -0.18572,-0.142198 -0.16226,-0.125196 -0.52849,-0.404524 -0.15421,-0.285015 -0.86144,-1.302848 -2.19204,-3.465596 0.008,0.02473 0.0163,0.04822 0.024,0.07234 -0.008,-0.01855 -0.10122,-0.19846 -0.0721,-0.150854 0.0261,0.04266 0.0221,0.03648 0.0481,0.07852 -0.27609,-0.849358 -0.56557,-1.695224 -0.78073,-2.559977 -1.25797,-1.388353 -0.95228,-2.938688 -1.47737,-6.991596 -0.90469,-6.982848 2.66126,-10.604739 6.22779,-10.227758 2.77397,0.293053 5.55047,3.00614 6.2278,8.440631 0.15297,1.227266 0.29435,2.578246 0.4324,3.900322 0.0197,0.0062 0.0403,0.0062 0.06,0.01237 0.66992,2.903108 0.29762,1.316141 0.45042,2.022621 0.028,0.03555 0.0562,0.07264 0.0901,0.120868 -0.0717,-0.517602 -0.003,-0.564744 0.25823,0.114687 0.30833,-0.33055 0.61653,-0.659616 0.92486,-0.990166 -0.01,-0.636926 0.74425,-3.394497 0.87081,-3.568258 0.46962,-0.644716 0.99484,-1.245598 1.52542,-1.841472 0.34566,-0.586785 0.69451,-1.174498 1.00293,-1.781099 -0.15632,0.181149 -0.29835,0.378774 -0.46843,0.543384 -0.22216,0.215153 0.71309,-1.008466 0.57653,-0.730561 -0.0317,0.06461 -0.0755,0.123033 -0.10811,0.187332 0.67537,-0.782587 1.28199,-1.64496 2.15601,-2.173568 1.08976,-0.659121 2.40164,-1.246865 3.6634,-1.086768 4.93117,0.625766 4.96869,1.576457 7.04456,4.57051 0.87483,2.560564 1.10035,2.516854 1.10503,5.16218 0.002,0.957584 -0.47907,2.173135 -0.32431,3.151647 0.0277,0.41216 0.006,0.825246 0.0181,1.237715 3.73716,-1.151963 5.177,0.915914 6.93044,7.939505 3.47617,13.924087 -1.15954,41.999099 -8.72611,52.859582 -0.1393,0.2 -0.23892,0.41376 -0.37235,0.61584 1.68546,0.75443 3.32504,1.55092 4.78045,2.59015 1.52955,-0.51269 2.60053,1.14374 3.41117,3.45351 0.18901,0.27821 0.38552,0.54227 0.55852,0.84527 0.39488,0.69168 0.88128,1.42728 1.36327,2.1796 0.98789,1.29753 2.36556,3.08027 1.65754,2.28825 -0.52376,-0.58589 -0.47731,-0.55324 -0.93087,-1.06262 0.27404,0.47704 0.53484,0.95094 0.73269,1.43095 0.17123,0.16353 0.30361,0.3576 0.46243,0.5313 0.0743,0.0334 0.16137,0.0702 0.23421,0.10263 0.045,0.0903 0.1209,0.24266 0.18618,0.37435 0.0274,0.0365 0.0635,0.0655 0.0901,0.10263 -0.0952,-0.17868 -0.21886,-0.40319 -0.25223,-0.4649 0.19363,0.0866 0.44252,0.19166 0.62458,0.27173 10.17943,4.4748 15.32464,10.73256 16.5514,16.63371 0.0575,0.0309 0.11681,0.0532 0.17416,0.0844 1.17776,0.13045 2.35206,0.26492 3.50726,0.5253 0.27053,0.0609 0.53087,0.15642 0.78674,0.25967 0.60911,0.0711 0.88724,0.0825 1.55544,0.17496 2.14816,-0.12643 4.07542,0.21547 6.05964,0.75471 1.68485,-0.0931 3.36696,-0.11005 5.06271,-0.0723 2.18351,0.0247 4.36246,-0.006 6.54609,-0.006 1.90136,0.003 3.80394,0.006 5.7053,0.006 1.69118,-4.3e-4 3.38354,0 5.07473,0 0.6367,0 1.27307,3e-5 1.90977,0 0.56506,-0.18887 1.25463,-0.4423 1.56145,-0.50715 2.20559,-0.46629 4.24352,-0.45263 6.32989,-0.3381 2.54139,-1.3417 5.17133,-2.33793 8.00545,-3.0309 0.40785,-0.0998 0.81991,-0.17496 1.23115,-0.25966 0.41203,-0.33494 1.08819,-0.49736 1.54944,-0.78488 1.78382,-1.11193 3.49076,-2.03999 5.31495,-3.00073 0.0344,-0.0374 0.0643,-0.0736 0.0959,-0.1085 0.006,-0.009 0.0215,-0.006 0.0308,-0.0124 0.29242,-0.31419 0.55957,-0.65223 0.85881,-0.95999 0.4429,-0.45547 1.09647,-0.64327 1.68158,-0.88754 0.33531,-0.14003 0.6801,-0.25441 1.02095,-0.38035 1.40887,-1.10998 2.96997,-2.02809 4.44412,-3.01881 -3.1271,-0.0974 1.18558,-1.10584 5.56116,-1.78113 0.31023,-0.20897 0.3839,-0.22072 0.58856,-0.35018 -0.77271,-1.42731 -2.15311,-3.87331 -1.50139,-2.9041 0.66663,0.9914 1.2059,1.90877 1.7056,2.78938 0.70168,-0.41871 1.09166,-0.53977 2.34215,-0.7245 0.1685,-0.0943 0.37279,-0.19661 0.57054,-0.29584 0.0913,-3.93472 0.50523,-10.62437 3.37515,-20.316652 -0.66273,0.744002 -1.24181,1.495802 -1.32124,0.845272 -0.0978,-0.801747 0.78108,-1.237957 1.59748,-1.702637 0.35755,-1.169862 0.72051,-2.347606 1.15308,-3.598428 0.25767,-0.744936 1.47934,-0.533554 2.23407,-0.748645 2.18899,-0.624066 4.39942,-1.094682 6.62417,-1.515466 0.80346,-0.436303 1.23139,-0.661656 1.56747,-0.790934 0.59416,-0.341925 1.05871,-0.609166 1.85571,-1.086768 -0.11039,0.03493 -0.21985,0.07388 -0.3303,0.108813 -0.18603,0.05873 0.70777,-0.330766 0.5405,-0.229373 -0.0922,0.05564 -0.12023,0.06677 -0.21032,0.120869 0.48546,-0.154254 0.96895,-0.313393 1.45336,-0.470924 0.0308,-0.01546 0.0458,-0.02164 0.0839,-0.04235 0.81709,-0.563292 1.63835,-1.116537 2.55238,-1.485264 2.51235,-1.013413 4.62032,-1.489716 6.77432,-1.636181 1.16992,-0.461094 2.32337,-0.857334 2.84665,-0.959995 2.26743,-0.444803 4.59418,-0.542302 6.88839,-0.815076 0.0621,-0.0031 0.12422,-0.0093 0.18603,-0.01236 0.4247,-0.960583 0.88876,-1.890314 1.6215,-2.61429 0.23799,-0.234937 0.46104,-0.423258 0.69664,-0.652074 -2.96165,-5.562438 -6.27549,-10.670305 -9.35668,-13.95299 -13.50479,-14.387099 -26.83929,-39.154138 -21.07961,-39.154138 2.17567,0 12.66298,7.576928 23.30765,16.839004 18.59734,16.181799 20.17275,16.736033 40.22545,14.254884 11.47772,-1.420131 32.48215,-2.403558 46.68142,-2.185623 23.79204,0.364955 26.74606,-0.602212 37.63101,-12.316811 16.99699,-18.29249 30.1597,-60.897912 28.01606,-90.69144 -1.40155,-19.480022 -4.92967,-28.803094 -19.25994,-50.915453 l -17.54229,-27.07279 14.47945,-14.55677 c 15.59603,-15.67929 23.08307,-35.88346 23.01942,-62.10925 -0.059,-24.42029 -2.62024,-26.46502 -28.10616,-22.39965 -8.27583,1.32011 -15.7002,2.87249 -20.08868,4.09955 -0.7085,0.58276 -1.47602,1.16245 -1.95182,1.43093 -0.0246,0.0284 -0.0483,0.0561 -0.072,0.0845 0.088,-0.047 0.0403,-0.0235 0.13222,-0.0725 0.18326,-0.0976 -0.57604,0.60159 -0.44444,0.44075 0.10209,-0.1247 0.20909,-0.24458 0.31232,-0.36829 -1.75895,0.9396 -2.13433,1.18109 -2.62446,1.47922 1.94759,-0.68945 -1.84636,1.12312 0,0 -0.28627,0.1013 -0.98491,0.3905 -1.62752,0.65206 -0.003,0.002 -0.009,0.004 -0.0123,0.006 -0.14298,0.11564 -0.22723,0.21082 -0.36634,0.27169 -0.006,0.003 -0.0154,0.002 -0.0246,0.006 -1.48131,1.05796 -2.91386,2.31685 -4.87052,2.73505 0.12238,-0.0639 0.4977,-0.22918 0.36634,-0.18717 -0.26659,0.0853 -0.50517,0.24436 -0.77471,0.31999 -1.05185,0.29515 -2.12264,0.52222 -3.18297,0.7849 0.3668,-0.10483 1.34759,-0.56349 -0.32431,0.0845 -0.96959,0.2341 -1.93375,0.48683 -2.90669,0.70641 -0.30226,0.0682 0.61657,-0.11688 0.89484,-0.25358 0.1519,-0.0746 0.28996,-0.17345 0.43239,-0.26567 -1.29424,0.4676 -2.6747,0.89638 -3.52527,1.13508 -0.0277,0.01 -0.056,0.0201 -0.0842,0.0303 0.0415,-0.001 -0.2303,0.15623 -1.87972,0.9781 -0.0366,0.0182 0.0246,-0.0818 0.036,-0.12075 -1.75436,1.18569 -5.86747,4.02169 -7.66913,2.92223 -1.26872,-0.77425 -2.21104,-1.47953 -3.01481,-2.16148 -0.23676,1.51363 -0.46535,3.03178 -0.96089,4.47389 -1.30943,3.8107 -4.14045,7.55628 -7.06255,10.48739 -1.26915,1.97613 -2.52997,3.9566 -3.79555,5.935 -5.24021,3.25675 -3.23838,2.23674 -6.16771,3.13354 -1.61412,1.44994 -3.29634,2.84153 -5.29694,3.68296 -1.30792,0.5501 -2.62513,1.06611 -3.93966,1.59998 -0.45465,0.0695 -0.90739,0.14882 -1.36327,0.21132 -4.07001,2.44244 -1.8178,1.6899 -9.4588,3.13958 -0.52678,-0.0319 -7.03694,-0.11447 -8.23367,-1.09886 -3.99797,-3.28851 -6.61455,-8.26292 -11.06228,-10.90398 -2.72896,-1.62045 5.96228,4.51556 5.64523,7.68592 -0.5952,5.95126 -7.04914,-9.78179 -7.22469,-10.1855 -0.12884,-0.32116 -0.21432,-0.54003 -0.33033,-0.82716 -4.27959,-2.02038 -7.53141,-3.75793 -10.14344,-5.30105 -0.0938,-0.0216 -0.18849,-0.0385 -0.28227,-0.0604 -0.15344,1.4482 -0.11039,2.94993 -0.82877,1.35847 -0.095,-0.52603 -0.13068,-1.06008 -0.21032,-1.5879 h -0.006 c -2.62086,0.22137 -5.23458,0.47269 -7.81325,0.85735 0.0489,1.27077 0.66961,4.97577 0.15005,3.81579 -0.65624,-1.46813 -0.50102,-3.18643 -0.58256,-4.79389 -0.0474,-0.93215 -0.059,-1.84118 -0.06,-2.74713 -1.05785,-0.62223 -1.06944,-1.95415 -0.79873,-3.47768 -4.5793,-2.3e-4 -12.38833,-1.51125 -26.16635,-4.17202 -0.41794,-0.0807 -0.56258,-2.99618 -0.6306,-6.3999 -0.7387,-0.0195 -0.47909,-0.96797 -0.048,-2.07091 -0.0332,-5.04277 0.0904,-10.6377 0.10823,-11.94246 0.0154,-2.30612 -0.0215,-4.15971 -0.0246,-5.63916 -9e-5,-0.0412 6e-5,-0.068 0,-0.10869 0.006,-0.35129 -0.0184,-0.69843 -0.006,-1.05055 0.009,-4.5e-4 0.0154,4.5e-4 0.0246,0 0.083,-4.46157 1.02694,-4.51576 6.29987,-3.40523 1.02371,-1.87188 2.05603,-3.73497 3.08688,-5.60293 1.71088,-3.22854 3.42392,-6.46189 5.13477,-9.69042 0.0677,1.11597 -0.82677,3.77031 0.20417,3.35089 3.10675,-1.26399 5.98128,-3.09165 8.82221,-4.99313 0.25675,-0.91345 0.55012,-1.81385 0.9549,-2.66864 1.06845,-2.25637 2.58488,-4.26313 3.94566,-6.35764 -1.92195,-0.97725 -5.71574,-4.2148 -12.12525,-11.96058 -10e-4,-10e-4 -0.009,-0.0235 -0.0123,-0.0362 0.31658,0.37811 0.73209,0.74972 1.12905,1.13507 -0.13037,-0.44874 -0.13037,-0.40081 -0.25828,-0.83923 0.20939,0.10618 0.30133,0.13054 0.54652,0.26566 -0.26966,-0.38391 -0.53398,-0.77242 -0.81677,-1.14715 0.12391,0.42231 0.13683,0.41714 0.27028,0.87546 -0.34848,-0.17667 -0.65212,-0.32129 -0.91284,-0.43471 -0.075,-0.1627 -0.32289,-1.10573 -0.55252,-1.97431 -0.51258,-0.6378 -1.02159,-1.27834 -1.53743,-1.91393 z m 3.54931,4.59465 c 0.3442,0.49011 0.69941,0.97511 1.01492,1.48526 0.003,0.007 -1.3e-4,0.005 0.006,0.0121 2.34962,1.60751 4.74444,3.15711 6.94245,4.96294 1.12979,0.41522 2.12968,0.81351 1.55545,0.34415 -4.70632,-3.84697 -7.65136,-5.77551 -9.51885,-6.80443 z m 1.02094,1.49733 c -0.41307,-0.2826 -0.83439,-0.5568 -1.24316,-0.84526 0.84786,0.81455 1.60935,1.45217 1.24316,0.84526 z m 100.43143,63.64282 c 0.17804,-0.0618 0.35789,-0.11976 0.52848,-0.19924 0.0467,-0.0219 0.14913,-0.13629 0.10208,-0.11471 -1.22662,0.56426 -0.49302,0.22442 -0.75669,0.34414 0.0317,-0.009 0.0523,-0.0139 0.072,-0.0182 -3.7e-4,5e-5 0.0184,-0.006 0.0184,-0.006 0.0123,-0.003 0.0185,-3.1e-4 0.036,-0.006 z m -0.12607,0.0303 c -0.70171,0.19528 -0.98066,0.25995 -0.13222,0.0604 -0.056,0.025 0.0511,-0.0195 0.048,-0.0182 0.0277,-0.0139 0.0544,-0.0287 0.084,-0.0422 z m 14.01703,-5.08973 c 0.12884,-0.0919 0.26044,-0.18984 0.39039,-0.27772 -0.64775,0.26378 -0.53488,0.18285 -1.63352,0.65206 0.41384,-0.12439 0.8458,-0.20464 1.24313,-0.37433 z m -148.7104,342.34641 c -0.032,0.0343 -0.0643,0.0683 -0.0959,0.10263 0.25644,-0.13508 0.49419,-0.2677 0.75672,-0.40452 -0.22047,0.10047 -0.48641,0.13663 -0.66063,0.30202 z m -0.0959,0.10263 c -0.009,0.006 -0.0184,0.0124 -0.0307,0.0185 -0.25398,0.27513 -0.37492,0.44048 -0.70267,0.80302 0.24507,-0.27265 0.48349,-0.55216 0.73268,-0.82113 z m -79.03354,-12.76962 c -0.23649,-0.41163 -0.46854,-0.82271 -0.72668,-1.22562 -0.22492,-0.29553 -0.51724,-0.66846 -0.66061,-0.8634 l 0.40838,0.97811 c 0.4027,0.45461 0.50351,0.57702 0.97891,1.11091 z m -2.64846,-4.2505 c -0.96135,-1.41518 -2.11843,-2.53048 -3.41118,-3.45351 -0.2855,0.0955 -0.58155,0.25565 -0.90084,0.51319 1.09455,0.97872 2.16876,1.98187 3.25503,2.97052 -3.97089,-4.59722 -0.17354,-0.63269 1.36327,1.00828 -0.10436,-0.34526 -0.19249,-0.71423 -0.30628,-1.03848 z m 0.30628,1.03848 c 0.0234,0.0773 0.0432,0.15766 0.0661,0.23556 0.31236,0.26492 0.60927,0.54926 0.93087,0.80302 0.0234,0.0186 -0.72488,-0.74796 -0.99693,-1.03848 z m 0.0661,0.23556 c -0.48139,-0.4082 -0.9621,-0.81851 -1.42933,-1.24374 0.36626,0.42403 1.06649,1.2192 1.59749,1.82335 -0.054,-0.19629 -0.11165,-0.38721 -0.16816,-0.57961 z M 102.92189,83.792278 c -0.19144,-0.0405 -0.55091,-0.131379 -0.77472,-0.181149 0.16611,0.104795 0.305,0.183931 0.52249,0.326006 -0.28437,-0.123342 -0.56041,-0.269559 -0.84078,-0.404493 -0.11196,-0.02473 -0.27659,-0.06306 -0.39637,-0.09057 0.138,0.147144 0.16761,0.231227 -0.0541,0.157036 -0.20555,-0.06863 -0.59525,-0.257812 -0.89483,-0.380381 -0.0151,-0.0031 -0.0271,-0.0093 -0.042,-0.01237 0.28787,0.174966 0.34574,0.221335 0.70265,0.434695 0.36189,0.216389 -0.41328,-0.136943 -1.12304,-0.537356 -0.411388,-0.100467 -0.606128,-0.131379 -1.087011,-0.253485 -0.313695,-0.07976 0.699721,0.13107 0.954885,0.174966 -0.111925,-0.06553 -0.202756,-0.129524 -0.300291,-0.193204 -0.245066,-0.109431 -0.436734,-0.175275 -0.66662,-0.283779 -0.486966,-0.101703 -0.625605,-0.151782 -1.393296,-0.307891 -1.067334,-0.217007 -4.284007,-0.461744 -3.261034,-0.08439 3.451257,1.265939 7.063177,2.015449 10.617877,2.958442 0.18391,-0.01237 0.1856,-0.02164 0.33031,-0.03091 -0.0889,-0.05379 -0.19031,-0.08594 -0.27625,-0.14498 -0.17514,-0.120251 -0.1634,-0.155801 -0.0721,-0.150855 -0.64722,-0.33497 -1.29878,-0.660821 -1.94581,-0.996193 z m -3.032819,-0.76679 c 0.04815,0.02782 0.08268,0.0507 0.132129,0.07852 0.15949,0.03895 0.2708,0.06677 0.42039,0.10263 -0.0169,-0.0093 -0.0255,-0.01546 -0.042,-0.02473 -0.0904,-0.0374 -0.16983,-0.0745 -0.26426,-0.114686 -0.0904,-0.01546 -0.180553,-0.03091 -0.246232,-0.04235 z m 0.510479,0.157036 c 0.0286,0.01237 0.0559,0.02473 0.0841,0.03617 0.33478,0.08037 0.66165,0.157346 0.94889,0.223499 -0.0435,-0.04637 -0.13677,-0.117468 -0.2042,-0.174966 -0.53784,-0.105412 -0.57509,-0.100157 -0.97291,-0.174966 0.0558,0.034 0.0856,0.05503 0.14415,0.09057 z m 0.82877,0.08439 c 0.0333,0.0062 0.0268,0.0062 0.0601,0.01237 -0.0386,-0.01855 -0.0755,-0.04142 -0.11411,-0.06028 0.0197,0.01546 0.0359,0.03277 0.0541,0.04822 z m 8.09553,-129.308247 c 0.4596,0.35086 0.7808,0.600944 1.36927,1.050538 -1.35004,-1.207992 -2.04845,-1.833249 -1.36927,-1.050538 z m 1.45936,1.147141 c 0.0679,0.05039 0.0929,0.07234 0.15014,0.114686 -0.0523,-0.04668 -0.13053,-0.112522 -0.18015,-0.157037 0.009,0.01546 0.0209,0.02782 0.0301,0.04235 z m 28.93491,28.600352 c 0.0191,0.01546 0.0409,0.02782 0.06,0.04235 1.34488,0.613525 3.95991,1.660261 2.97878,1.225628 -1.00292,-0.444247 -2.02372,-0.852295 -3.03883,-1.267886 z m 0.06,0.04235 c -0.17336,-0.07914 -0.26111,-0.09398 -0.38435,-0.157037 -0.0307,-0.01546 -0.0491,-0.0408 -0.0841,-0.06028 -0.10799,-0.04451 -0.21638,-0.08841 -0.3243,-0.132925 0.0818,0.05966 0.19279,0.143126 0.27025,0.199078 0.50707,0.266159 0.95083,0.488205 0.67863,0.271723 -0.0514,-0.04111 -0.10464,-0.07975 -0.15614,-0.120868 z m 82.04833,-6.140291 c 0.3624,-0.221953 0.73388,-0.428976 1.09302,-0.658101 -0.38758,0.18084 -0.73727,0.347274 -1.14707,0.543384 -0.0451,0.04482 -0.057,0.06275 -0.12011,0.120869 0.0583,-0.0023 0.0602,0.0408 0.17416,-0.0062 z M 345.45733,-264.13916 c 0.20909,0.26309 0.33123,0.51127 0.44441,0.74866 0.33839,-0.056 0.67647,-0.12356 1.01492,-0.18718 -0.48103,-0.18096 -0.93885,-0.32877 -1.45933,-0.5615 z m -130.7056,11.45944 c -0.0228,-0.005 -0.0879,0.0291 -0.2042,0.12075 -1.10816,0.87203 -2.06858,1.93051 -3.06886,2.93429 0.21032,-0.11712 0.43064,-0.2187 0.63659,-0.34414 0.88445,-0.53873 2.79549,-2.67474 2.63646,-2.71091 z m 0.66662,1.95016 c -0.52816,0.26539 -1.04128,0.56407 -1.55545,0.85735 0.17453,-0.0649 0.26137,-0.0822 0.45643,-0.15698 0.40535,-0.15536 1.48706,-0.89529 1.09902,-0.70037 z m -4.31802,1.47319 c -0.0703,0.0682 -0.1392,0.13799 -0.2102,0.20529 0.36687,-0.0367 0.72586,-0.0855 1.16509,-0.20529 -0.31993,-0.003 -0.51246,4.6e-4 -0.95489,0 z m -0.31229,0.006 c -1.03663,0.002 -2.36251,0.0254 -4.38408,0.1268 2.08234,0.0396 3.0345,0.14529 3.93967,0.11472 0.15137,-0.0736 0.2946,-0.16501 0.44441,-0.24152 z m -18.92961,7.93951 c -0.0258,0.0124 -0.0522,0.0235 -0.0781,0.0362 0.31175,0.35428 0.25076,0.32429 0.68464,0.79697 0.23194,0.25265 -0.29343,-0.41943 -0.60656,-0.8332 z m 142.92096,3.66485 c 0.036,0.0693 0.0726,0.13583 0.10823,0.20529 -0.006,-0.0226 -0.0357,-0.11803 -0.0421,-0.13886 -0.0185,-0.0133 -0.0443,-0.0451 -0.0661,-0.0664 z m -142.66872,1.50337 c 1.6369,1.72424 3.51785,3.27183 5.29092,4.89653 -1.17348,-2.11355 -1.92366,-3.30775 -5.29092,-4.89653 z m 19.98659,2.11921 c 0.0658,-0.12007 -0.18916,0.0995 -0.34832,0.21735 0.006,0.11212 0.0169,0.22084 0.012,0.33811 0.13391,-0.23677 0.1899,-0.28811 0.33631,-0.55547 z m -22.2567,1.90186 c -1.33936,-0.0176 -3.01721,0.1336 -5.08073,0.47697 -1.63307,0.27176 -3.06016,0.47702 -4.42011,0.82716 -0.47,1.74114 -0.9472,3.47731 -1.3993,5.22256 -1.09805,4.23872 -2.21511,8.47256 -3.32109,12.70924 2.26242,0.24752 4.48201,0.50194 6.85838,0.72452 7.72746,-9.39952 17.84338,-19.82183 7.36285,-19.96045 z m 10.55782,4.90257 c 0.0571,0.16627 0.0913,0.28671 0.13812,0.44678 0.31377,0.64923 0.65052,1.28699 0.98492,1.92601 -0.0175,-0.10408 -0.0234,-0.21002 -0.042,-0.31396 -0.0988,-0.55143 -0.78655,-1.67278 -1.081,-2.05883 z m -0.3243,0.27169 c 0.60976,2.16591 0.65059,2.27854 0.23421,0.34414 -0.0865,-0.12133 -0.1523,-0.22677 -0.23421,-0.34414 z m -24.92319,6.10405 c -0.005,6.7e-4 -0.007,0.006 -0.012,0.006 -0.0228,0.003 -0.0375,0.003 -0.0601,0.006 -0.035,0.41119 -0.0713,0.91842 -0.0901,0.63999 -0.012,-0.17834 0.0899,-0.42278 0.16214,-0.65207 z m -4.88254,5.74181 c -0.0185,0.19502 -0.0292,0.32221 -0.0481,0.52527 0.0531,0.10615 0.0881,0.21682 0.15014,0.32 0.005,0.009 0.0129,0.0154 0.0181,0.0241 -0.0403,-0.28984 -0.0834,-0.5789 -0.1201,-0.86942 z m 154.45169,3.79767 c 0.18634,0.23958 2.27463,1.83468 2.66646,2.13733 -0.032,-0.0303 -0.0673,-0.0603 -0.0959,-0.0906 -0.85906,-0.66672 -1.70363,-1.35273 -2.54636,-2.04073 0.001,0.004 -0.0277,-0.0127 -0.0246,-0.006 z m -262.852532,5.19841 c -0.10722,0.0339 -0.21155,0.0741 -0.318297,0.10869 0.138092,0.0445 0.276368,0.0882 0.414387,0.13284 -0.04173,-0.0999 -0.0527,-0.13812 -0.09609,-0.24153 z m 187.056012,0.51321 c 2.70148,0.1 6.41534,0.588 11.52472,1.29205 29.34381,4.04349 43.87053,17.40791 49.04162,45.11932 3.25658,17.45179 1.11753,18.23861 -24.71299,9.05647 -20.67726,-7.35031 -43.04804,-31.16877 -43.04804,-45.83176 0,-6.6254 0.21837,-9.20673 4.81648,-9.59986 0.68971,-0.059 1.47772,-0.0696 2.37821,-0.0362 z m 221.12571,3.95465 c 15.51993,0 16.84793,4.74192 7.56702,27.0728 -4.07964,9.81607 -10.60701,16.37224 -20.37095,20.47365 -16.7468,7.03461 -15.17404,6.86758 -22.19063,2.39695 -4.07425,-2.59592 -2.73794,-4.21118 5.12275,-6.19462 11.72245,-2.95785 14.69937,-17.3596 5.51913,-26.71658 -7.22334,-7.3627 6.60077,-17.0322 24.35268,-17.0322 z m -67.98326,19.51971 c -0.006,0.002 -0.0184,0.004 -0.0246,0.006 -0.0501,0.0195 -0.17834,0.11874 -0.13221,0.0906 0.0523,-0.032 0.10393,-0.0646 0.1562,-0.0966 z m -4.21591,2.246 c -1.73394,0.92415 -2.50625,1.40513 -3.4352,1.9562 0.41191,-0.14971 0.82357,-0.30245 1.21915,-0.48905 0.80159,-0.37808 2.99833,-1.88408 2.21605,-1.46715 z m -4.23396,2.22186 c -1.14455,0.15607 -2.29157,0.29546 -3.42318,0.52527 -0.73769,0.1498 1.51336,-0.0207 2.2461,-0.19321 0.39555,-0.0932 0.78734,-0.2128 1.17708,-0.33206 z m -224.96325,77.33 c -0.0441,-0.0383 -0.0406,0.007 0.0301,0.16907 0.19673,0.460339 0.43304,0.903405 0.6426,1.358466 0.20392,0.294042 0.39928,0.578547 0.66061,0.941874 0.24227,0.220778 0.18314,0.147423 0.45042,0.392446 0.016,0.01484 0.0484,0.05549 0.066,0.07246 -0.63405,-1.098546 -1.66026,-2.769656 -1.84972,-2.934296 z m 2.19203,3.670892 0.0481,0.08451 0.006,0.0062 c 0.11316,0.149278 0.12749,0.128566 0.0841,0.0303 -0.0455,-0.04074 -0.0929,-0.07969 -0.13812,-0.120746 z m -0.15014,0.664139 c 0.56434,1.060103 1.15077,2.109296 1.78366,3.1275 0.54425,0.875613 -0.1896,-0.674816 -0.92486,-2.221853 -0.18372,-0.193885 -0.59487,-0.62968 -0.8588,-0.905647 z m 84.57067,1.243755 c 0.0503,-0.107576 -0.4819,0.135491 -1.99986,0.978098 -0.19851,0.110204 -0.39065,0.268786 -0.58254,0.416598 0.0298,0.02566 0.0601,0.0528 0.0901,0.07849 0.0992,0.0017 0.16875,0.0096 0.24624,0.01824 0.10325,-0.05413 0.2089,-0.103372 0.31229,-0.156975 0.4599,-0.311411 0.91029,-0.638159 1.37528,-0.941874 0.0758,-0.04952 -0.142,0.115861 -0.2042,0.181118 0.27323,-0.202015 0.73733,-0.519309 0.7627,-0.573576 z m -0.7627,0.573577 c -0.23397,0.172957 -0.30793,0.250702 -0.65461,0.489049 0.0782,-0.03932 0.1558,-0.0821 0.23421,-0.120746 0.16626,-0.08195 0.29304,-0.234627 0.42039,-0.368297 z m -0.65461,0.489049 c -0.17324,0.08708 -0.34389,0.182199 -0.51648,0.271692 -0.0851,0.05765 -0.17321,0.111224 -0.25823,0.169061 0.0364,0.0053 0.0526,0.01731 0.0841,0.02411 0.31978,-0.214318 0.40747,-0.270208 0.69064,-0.464899 z m -0.69064,0.464899 c -0.0767,0.05144 -0.0965,0.06294 -0.17416,0.114718 0.0512,0.04421 0.105,0.08859 0.15614,0.132832 0.15639,0.135336 0.34001,0.170236 0.5345,0.132832 -0.002,-0.120807 -0.10317,-0.291693 -0.51648,-0.380372 z m -0.17416,0.114718 c -0.0172,-0.01484 -0.0369,-0.02751 -0.0541,-0.04226 -0.56503,0.385253 -1.1307,0.770701 -1.69357,1.159228 -0.028,0.0306 -0.0561,0.05988 -0.0841,0.09057 0.6072,-0.394592 1.01527,-0.662714 1.8317,-1.207529 z m -0.0541,-0.04226 c 0.0478,-0.03258 0.0963,-0.06408 0.14415,-0.0966 -0.0231,-0.0034 -0.0289,-0.0093 -0.054,-0.01206 -0.0461,0.02411 -0.0921,0.04822 -0.13813,0.07246 0.0151,0.01298 0.033,0.02318 0.0481,0.03623 z m -0.0481,-0.03623 c -0.0353,-0.03029 -0.0728,-0.06022 -0.10811,-0.09057 -0.0541,-9.43e-4 -0.17299,0.02287 -0.23421,0.02411 -0.21152,0.172709 -0.41893,0.364937 -0.62458,0.567539 0.32255,-0.167918 0.64523,-0.332 0.9669,-0.501126 z m -3.36913,6.750087 c -0.004,-0.0068 -0.0645,0.219481 -0.0721,0.229435 -0.0984,0.672067 -0.1959,1.344506 -0.29426,2.016574 0.17358,-0.969597 0.40263,-2.17729 0.36634,-2.246005 z m -1.48939,4.775778 c -0.0742,0.107947 -0.0879,0.117468 -0.16816,0.235462 6.5e-4,0.01608 -6.4e-4,0.03218 0,0.04832 0.0274,-0.02102 0.0418,-0.01175 0.0961,-0.05434 0.0221,-0.077 0.0497,-0.152493 0.0721,-0.229434 z m -0.62458,6.116135 c -0.0354,0.122754 0.003,-0.05382 -0.35433,1.310168 -0.11076,0.423217 0.26001,-0.840681 0.35433,-1.267904 0.003,-0.01144 -0.002,-0.02999 0,-0.04226 z m -152.145435,4.359172 c -0.0027,0.0028 -0.0092,0.0093 -0.01199,0.01206 0.02245,0.03719 0.01999,0.01453 0.01199,-0.01206 z m 46.417175,1.376581 c 0.0747,0.761341 0.16119,1.545721 0.24624,2.324496 0.2677,0.05397 0.53674,0.109462 0.80475,0.169062 -0.32956,-0.714944 -0.64887,-1.486615 -0.94888,-2.396946 -0.0331,-0.02998 -0.0688,-0.06628 -0.10209,-0.0966 z m -19.88449,38.477925 c 0.19648,0.247611 0.24097,0.293362 0.36033,0.440754 0.48019,0.24081 1.79567,1.174468 1.37528,0.839219 -0.56233,-0.448389 -1.15007,-0.862125 -1.73561,-1.279973 z m 10.71997,9.648145 c 0.009,0.0062 0.0335,0.03091 0.042,0.03617 1.03066,0.635164 2.1748,1.066582 3.26104,1.599981 -1.10084,-0.545517 -2.20224,-1.090694 -3.30308,-1.636211 z m 76.60126,4.564451 c -0.80299,0.48363 -1.59504,0.9876 -2.39023,1.485265 0.70107,-0.239265 1.0043,-0.446257 2.39023,-1.485265 z m -9.25461,49.913225 c 0.0228,-0.02782 -0.0802,0.0093 -0.10209,0.03617 -0.13821,0.17713 -0.27169,0.358928 -0.40838,0.537357 0.16893,-0.191968 0.34615,-0.37797 0.51048,-0.573586 z m -14.22123,3.441453 c -0.48903,0.08501 -1.11553,0.462578 -0.80475,0.573586 1.07917,0.385451 2.18939,0.677669 3.30307,0.947908 -0.67025,-0.537232 -1.36296,-1.047973 -2.09595,-1.491292 -0.0942,-0.05688 -0.23938,-0.05873 -0.40237,-0.03091 z m 11.43464,2.360713 c -0.22705,0.281924 -0.4467,0.569691 -0.66662,0.857365 0.23658,-0.253794 0.47207,-0.507092 0.70866,-0.760762 -0.0274,0.0019 -0.0661,0.03091 -0.0781,0.0062 -0.0157,-0.03277 0.0588,-0.130761 0.036,-0.10263 z m 11.19441,1.974304 c -0.004,0.04853 -0.008,0.09645 -0.012,0.144981 0.0123,-0.01546 0.0237,-0.03246 0.036,-0.04822 -0.002,-0.04977 -0.0157,-0.0643 -0.024,-0.09645 z m 0.37235,0.08439 c -0.13997,0.234319 -0.29018,0.461496 -0.4324,0.694331 -6.7e-4,0.0093 -0.005,0.01546 -0.006,0.02473 0.16103,-0.162601 0.30312,-0.340658 0.42639,-0.543384 0.0102,-0.0575 -0.006,-0.118396 0.012,-0.174966 z m -11.21844,3.405224 c -0.1078,0.03833 -0.11199,0.03802 -0.2102,0.07234 0.002,0.0031 0.004,0.0093 0.006,0.01237 0.0677,-0.02782 0.13689,-0.05472 0.2042,-0.08439 z m -14.78575,0.114686 c 0.15949,0.515068 0.33487,1.087665 0.44441,1.39469 0.74377,0.149927 1.50293,0.245756 2.2581,0.356239 -1.17721,-0.631393 -2.15589,-1.23549 -2.70251,-1.750929 z m 5.68128,30.333126 c -0.2173,0.133852 -0.4953,0.298617 -0.73869,0.428667 0.006,0.04421 0.0123,0.09367 0.0181,0.138798 0.27161,-0.197532 0.4085,-0.271105 0.72067,-0.507154 1.8e-4,-0.02164 -1.6e-4,-0.04019 0,-0.06028 z M 76.232872,77.210956 c -0.001,0.0093 -0.0049,0.01855 -0.0062,0.03091 0.03588,-0.0031 0.01045,-3.1e-4 0.04806,-0.0062 -0.01138,-0.0093 -0.03013,-0.01546 -0.04203,-0.02473 z m -0.02398,0.253484 c -0.101501,1.098299 -0.146579,2.174155 -0.156142,3.236193 1.013182,-1.243681 1.349166,-2.345504 0.474442,-3.212019 -0.18114,-0.01546 -0.16389,-0.01237 -0.318297,-0.02473 z m 3.495252,0.748676 c 2.10337,1.171778 0.690681,0.242974 0.372347,0.126742 -0.122841,-0.04482 -0.249125,-0.08192 -0.372347,-0.126742 z m 4.70838,0.16291 c 0.823777,0.270487 1.252286,0.400907 2.648463,0.833191 -0.202233,-0.09336 -0.393665,-0.217007 -0.606562,-0.283779 -0.87105,-0.273268 -1.491701,-0.432655 -2.041901,-0.549412 z m 87.525416,0.446782 c -0.40264,0.0677 -0.81136,0.114377 -1.20712,0.20526 -0.028,0.0093 -0.0499,0.01546 -0.0781,0.02473 -0.30709,0.08316 -0.59759,0.267395 -0.79874,0.513182 -0.0557,0.06801 -0.0889,0.11345 -0.14415,0.181149 0.75681,-0.275124 1.50498,-0.570835 2.22807,-0.923766 z m -2.50433,0.627899 c -0.32519,0.108813 -0.74611,0.2269 -0.95489,0.307891 -0.37303,0.144672 -0.87678,0.466288 -1.41731,0.778847 0.63223,-0.184858 1.26086,-0.3793 1.89776,-0.549412 0.15402,-0.184859 0.31603,-0.358063 0.47444,-0.537356 z m -1.66955,1.636212 c -0.0401,0.02164 -0.08,0.04019 -0.12011,0.06028 -0.32659,0.405297 -0.70621,0.875356 -1.10502,1.35846 0.0962,0.0031 0.16933,2.47e-4 0.27025,0.0062 0.0725,-0.08037 0.15091,-0.153945 0.22222,-0.235555 0.44537,-0.711765 0.12401,-0.209897 0.73268,-1.189398 z m -62.24791,4.190129 c 0.0379,0.0093 0.0762,0.01855 0.11411,0.03091 -0.0169,-0.0093 -0.0313,-0.02164 -0.0481,-0.03091 -0.0221,-0.0015 -0.044,0.0013 -0.0661,0 z m 0.13213,0.0062 c 0.01,0.01237 0.0203,0.02473 0.0301,0.03617 0.14507,0.04019 0.29365,0.06739 0.43841,0.108813 -0.0904,-0.04575 -0.17994,-0.09305 -0.27025,-0.138798 -0.066,-0.0062 -0.13207,6.18e-4 -0.19818,-0.0062 z m 0.0541,0.05441 c 0.80045,0.921694 2.76985,2.584429 8.1676,5.989343 1.57523,0.993659 -2.31055,-2.991209 -3.82556,-4.075412 -1.28602,-0.920303 -2.9285,-1.214314 -4.34204,-1.913931 z m 51.56397,0.633958 c -0.0976,0.02473 -0.1967,0.04235 -0.29426,0.06646 -1.38792,1.059348 -1.09765,0.847565 0.29426,-0.06646 z m 27.70377,4.262558 c -0.0926,0.06368 -0.18366,0.129524 -0.27624,0.193205 -0.002,0.0062 -0.004,0.01237 -0.006,0.01855 0.0308,-0.01546 0.17284,-0.09614 0.25223,-0.150854 0.0104,-0.01855 0.0194,-0.0405 0.0301,-0.06028 z m -0.0901,0.169093 c -0.0662,0.01855 -0.13203,0.03679 -0.19817,0.05441 -0.098,0.343873 -0.18317,0.674918 -0.28228,1.020368 0.036,-0.03091 0.0602,-0.06028 0.0961,-0.09057 0.0295,-0.147145 0.0374,-0.299545 0.0901,-0.440754 0.0723,-0.193823 0.20143,-0.359515 0.29426,-0.543384 z m 36.07556,25.678103 0.024,0.0603 c 0.0762,0.0702 0.15123,0.14189 0.22822,0.21144 -0.12343,-0.12211 -0.1427,-0.16909 -0.25223,-0.27172 z m 1.21313,1.35243 c 0.0141,0.038 0.0286,0.0767 0.042,0.11468 0.012,0.006 0.024,0.0124 0.036,0.0185 -0.0123,-0.0216 -0.0175,-0.0569 -0.0301,-0.0785 -0.008,-0.0155 -0.0387,-0.0396 -0.0481,-0.0544 z m 95.54888,2.5358 c -0.0901,0.0504 -0.18172,0.0977 -0.27028,0.15086 0.0504,-0.009 0.15036,-0.0328 0.20417,-0.0424 0.0215,-0.0185 0.0443,-0.0405 0.0661,-0.0603 3.1e-4,-0.0154 -3.1e-4,-0.034 0,-0.0482 z m -0.0661,0.10881 c -0.34958,0.3253 -0.73975,0.68012 -0.9549,0.90565 0.0363,-0.003 0.0603,-3e-5 0.0959,-0.006 0.0772,-0.0782 1.2939,-1.32411 0.88882,-0.90565 -0.009,10e-4 -0.0215,10e-4 -0.0308,0.006 z m 0.0308,-0.006 c -0.26413,0.27327 -0.50781,0.55303 -0.84076,0.89959 0.24691,-0.21948 0.51811,-0.49037 0.71466,-0.60978 0.006,-0.003 0.0123,-10e-4 0.0185,-0.006 0.0621,-0.0578 0.0885,-0.0859 0.13222,-0.12675 9.5e-4,-0.047 0.006,-0.1153 0.006,-0.16291 -0.009,0.002 -0.0215,0.002 -0.0308,0.006 z m -0.10824,0.28378 c -0.30318,0.28316 -0.15989,0.14838 -0.6546,0.60982 0.0403,-0.003 0.0676,-0.006 0.10823,-0.0124 0.0803,-0.0832 0.45714,-0.43312 0.67862,-0.64601 10e-5,-0.003 -6e-5,-0.009 0,-0.0124 -0.0434,0.0216 -0.091,0.0355 -0.13222,0.0603 z m -0.54652,0.59773 c -0.0544,0.0563 -0.4759,0.45259 -0.45643,0.44075 0.009,-0.003 -2.5e-4,0.003 0.0123,0 0.15774,-0.14312 0.30625,-0.29583 0.46242,-0.44075 -0.006,7.4e-4 -0.0123,-7.1e-4 -0.0185,0 z m 0.0185,0 c 0.1193,-0.0124 0.20847,-0.0186 0.3243,-0.0309 0.10978,-0.064 0.21494,-0.13478 0.32431,-0.19939 0.002,-0.12489 0.009,-0.25441 0.0123,-0.38641 -0.21832,0.20742 -0.43998,0.41098 -0.66061,0.61584 z m -0.12607,0.0124 c -0.0277,0.003 -0.0489,8.4e-4 -0.0781,0.006 -0.0184,0.002 -0.0307,0.002 -0.048,0.006 -0.0215,0.0216 -0.16727,0.16724 -0.23431,0.23555 0.0996,-0.0949 0.18081,-0.15054 0.27613,-0.23555 -0.16266,0.16909 -0.24753,0.26028 -0.41437,0.43469 0.003,0.001 0.0123,-2.4e-4 0.0184,0 0.4774,-0.44523 0.11777,-0.1085 0.48044,-0.44678 z m -0.49847,0.44679 c -0.0154,-0.003 -0.0744,0.0278 -0.0719,0.0124 -0.13991,0.14282 -0.0597,0.0572 -0.28842,0.28996 0.0154,0.002 0.032,0.001 0.048,0.006 0.26259,-0.24483 -0.0123,0.009 0.22231,-0.21145 0.0366,-0.0383 0.0535,-0.0584 0.0901,-0.0964 z m -0.31231,0.30789 c -0.62423,0.58205 0.25275,-0.23865 -0.53447,0.4951 -0.0123,0.0154 -0.006,-8.1e-4 -0.0185,0.0185 0.0123,0.0186 0.0246,0.0408 0.036,0.0603 0.22201,-0.23153 0.32391,-0.34597 0.54053,-0.57358 -0.009,-9.3e-4 -0.0154,9.2e-4 -0.0246,0 z m -0.048,-0.006 c -0.006,-7.4e-4 -0.0123,-0.006 -0.0184,-0.006 -0.12115,0.12582 -0.22908,0.25163 -0.34832,0.38038 0.45637,-0.46514 0.0744,-0.0763 0.36634,-0.37432 z m 0.28842,-0.28996 c 0.10209,-0.10417 0.15006,-0.14992 0.21032,-0.21144 -0.0775,0.0739 -0.13744,0.10263 -0.21616,0.18115 -0.0123,0.0216 0.009,0.0186 0.006,0.0309 z m -0.84678,0.87545 c -1.02993,1.13898 -1.93218,2.25836 -1.34525,1.5215 0.16635,-0.20897 0.82077,-0.88182 1.38728,-1.47318 -0.0123,-0.0155 -0.0308,-0.034 -0.0421,-0.0482 z m -4.14987,0.69433 c -0.25644,0.19321 -1.04754,0.74886 -0.77471,0.57962 0.0123,-0.006 0.0123,2.4e-4 0.0246,-0.0124 0.23,-0.17466 0.43629,-0.33503 0.7507,-0.56753 z m -15.2662,8.73647 c 0.22237,-0.0522 -0.45969,2.1e-4 -0.67863,0.0665 -0.17164,0.0513 -0.33567,0.12736 -0.50447,0.18702 0.3957,-0.0804 0.79009,-0.16105 1.1831,-0.25348 z m -55.52165,3.31468 c 0.0843,0.0476 0.15657,0.085 0.24024,0.13292 0.43973,0.0371 1.25903,0.14498 1.87374,0.20526 -0.53145,-0.10664 -1.0639,-0.21113 -1.59148,-0.33206 -0.31653,-0.006 -0.29143,5.6e-4 -0.52249,-0.006 z m 6.69023,1.00828 c 0.20014,0.0643 0.40345,0.11778 0.60656,0.16909 0.14445,0.0365 -0.27963,-0.11963 -0.4264,-0.14498 -0.0972,-0.0155 -0.0947,-0.009 -0.18016,-0.0247 z m -3.45322,0.85131 c 0.19876,0.11437 0.45799,0.27079 0.6486,0.37432 0.0529,0.0278 -0.0719,-0.10047 -0.12613,-0.12674 -0.17327,-0.0841 -0.34886,-0.16415 -0.52248,-0.24762 z"
       inkscape:connector-curvature="0"
       inkscape:export-xdpi="96"
       inkscape:export-ydpi="96" />
    <path
       id="path3781"
       style="fill:#d6b398;stroke-width:4.11074209"
       d="m 328.6717,-36.767509 c -4.14894,0 -3.63747,53.950345 0.57654,60.805121 5.20776,8.471327 5.86994,6.056826 3.68743,-13.409606 l -2.07793,-18.5536723 13.85489,2.107136 c 7.62197,1.158053 11.09351,0.9201795 7.71117,-0.5313282 -11.25676,-4.8307955 -20.49708,-15.1208735 -20.49708,-22.8162605 0,-4.182503 -1.46533,-7.60139 -3.25502,-7.60139 z m 125.39665,31.2387856 c -1.6457,-0.054716 -5.49524,2.0308125 -9.95126,5.55461749 C 430.51803,10.780034 411.64106,10.910703 394.4449,0.37004562 387.11649,-4.1221628 381.12448,-6.1794056 381.12448,-4.2064928 c 0,4.93676458 17.37924,15.9535398 30.31622,19.2178318 10.63511,2.683504 12.72224,7.540699 11.10434,25.877333 -0.5171,5.860901 0.83931,8.601315 3.45921,6.973481 2.3725,-1.474105 4.318,-9.994027 4.318,-18.927994 0,-9.664621 1.9414,-16.241275 4.79847,-16.241275 5.89353,0 19.80041,-12.23730283 19.80041,-17.424646 0,-0.5200141 -0.3041,-0.778692 -0.85278,-0.7969614 z M 315.30328,26.820964 c -0.0375,0.224118 -0.0523,0.426998 -0.0962,0.658102 -0.0123,0.0062 -0.0185,0.01236 -0.0421,0.06028 -0.40237,0.867845 -0.74875,1.763603 -1.08099,2.668666 1.18222,-0.91817 1.60114,-2.039777 1.21915,-3.38714 z m 32.17193,41.569196 c -0.71017,-0.05008 -1.36791,0.296144 -2.07193,1.056567 1.66174,0.261212 3.3234,0.519395 4.99062,0.736619 -1.15169,-1.082378 -2.08891,-1.734606 -2.91869,-1.793186 z"
       inkscape:connector-curvature="0"
       inkscape:export-xdpi="96"
       inkscape:export-ydpi="96" />
    <path
       id="path3779"
       style="fill:#959696;stroke-width:4.11074209"
       d="m 323.34475,-278.27329 c -2.6687,2.06854 -5.30057,4.18534 -7.92136,6.31538 0.93039,-0.10106 1.84814,-0.23408 2.63644,-0.70037 2.26716,-1.34112 3.83761,-3.61984 5.67527,-5.51237 -0.13406,-0.0303 -0.25705,-0.0706 -0.39035,-0.10263 z m 13.10419,5.72369 c -2.06335,0.23224 -4.12858,0.4554 -6.20377,0.52527 -16.14182,0.54349 3.26116,-0.49568 -10.57583,0.3019 1.97621,-0.75976 -2.03913,-0.0396 -5.03269,0.40452 -1.03527,0.8407 -2.07039,1.68375 -3.11089,2.51769 0.28165,-0.0606 0.58351,-0.0634 0.84678,-0.18111 1.57544,-0.70433 6.04226,-3.29635 4.64833,-2.27619 -1.81509,1.32837 -6.67094,3.54861 -9.17053,4.60672 -0.12453,-0.0321 -3.70154,1.20585 -5.16481,1.64224 -1.98417,0.81353 -3.22387,1.13196 -4.35406,1.29205 -0.123,0.0343 -0.17004,0.043 -0.30042,0.0785 -0.67646,0.41903 -1.35743,0.82813 -2.0359,1.24376 -0.008,0.005 -0.0163,0.007 -0.024,0.012 -0.0422,0.026 -0.0838,0.0526 -0.12613,0.0785 -0.2796,0.13342 -1.11569,0.54142 -0.84079,0.39848 0.3186,-0.16566 0.68548,-0.34012 0.96691,-0.47697 -0.5697,0.28427 -2.26357,1.1607 -4.30001,2.06487 -0.27572,0.20619 -0.53926,0.42545 -0.82276,0.62188 -0.32682,0.48643 -0.67232,0.96241 -1.00894,1.443 -0.0237,0.0504 -0.0483,0.10056 -0.0721,0.15095 -0.0304,0.0896 -0.0879,0.22739 -0.11411,0.30792 0.0967,-0.0581 0.76132,-0.9375 0.58254,-0.69433 -0.14599,0.19858 -0.41457,0.56369 -0.65461,0.89357 -0.80463,2.55076 0.48855,0.42568 -1.90977,2.65053 -0.22324,0.48596 -0.45389,0.88199 -0.70866,1.35243 0.0407,-0.0367 0.0982,-0.0866 0.0781,-0.0604 -0.0392,0.051 -0.0806,0.10018 -0.12011,0.15094 l -0.006,0.006 c -0.0717,0.15553 -0.13219,0.31555 -0.2042,0.47094 -0.24208,0.52238 -0.48102,1.04456 -0.70265,1.57583 -0.1749,0.41925 0.46418,-0.7881 0.60656,-1.21961 -0.63273,2.4705 -0.71184,2.30144 -2.54036,5.04144 -0.15943,0.23892 -0.3419,0.52319 -0.5345,0.82112 -0.0613,0.18047 -0.12321,0.36 -0.18618,0.53131 -0.001,0.008 0.0579,-0.0762 0.0481,-0.0543 -0.0123,0.0275 -0.0557,0.0827 -0.0721,0.11472 -0.19301,0.52001 -0.40353,1.01319 -0.63659,1.4913 0.17997,0.0176 0.36068,0.0515 0.5405,0.0664 4.2639,7.75139 6.13631,9.52836 6.45601,12.71528 5.67588,3.11666 6.60923,3.21884 6.7683,9.12288 1.16263,0.36172 2.27853,1.17883 3.21298,2.43317 0.6511,-0.60848 1.2594,-0.99382 1.77767,-0.96602 0.78123,0.0419 1.37219,0.96542 1.64551,3.29655 0.39632,3.38021 0.41446,1.42641 -0.67862,5.83237 -0.0744,0.0762 -0.14759,0.1536 -0.22231,0.22943 0.10639,0.79167 0.23246,1.55302 0.27643,2.13733 0.0372,0.49497 0.40044,1.14403 0.0421,1.48526 -2.55576,2.43216 -3.95125,4.1087 -5.15881,5.10181 0.58324,1.36644 0.69525,2.63559 0.27028,3.74938 -1.23941,3.24644 2.10354,11.11034 7.42889,17.47294 6.61639,7.90513 9.0475,14.9105 7.67513,22.12797 -2.59681,13.65682 8.7533,25.68817 21.2598,22.53248 6.00655,-1.51559 11.58272,0.48049 16.4493,5.88671 8.49938,9.44182 21.3241,10.36341 31.90768,2.2943 5.68055,-4.33094 10.07023,-4.59712 19.1458,-1.15319 14.063,5.33653 24.73101,-1.23781 24.73101,-15.23901 0,-6.0994 3.86645,-10.36046 12.29944,-13.56055 13.34164,-5.06279 15.83535,-13.79081 6.23379,-21.80194 -4.40489,-3.67526 -4.96363,-7.11733 -2.04789,-12.59452 2.20757,-4.1468 4.01174,-11.30605 4.01174,-15.90919 0,-9.24444 -13.90738,-18.74496 -22.55699,-15.40807 -3.03597,1.17122 -8.47278,-2.39689 -12.07725,-7.92743 -4.29414,-6.58864 -10.40309,-10.05681 -17.72848,-10.05872 -6.10037,-0.002 -9.04602,-0.91561 -10.50978,-4.09956 -0.1602,0.0155 -0.32031,0.0322 -0.48045,0.0483 -2.50029,0.1648 -3.01176,0.30155 -5.78338,-0.0664 -0.97365,-0.12928 -1.9268,-0.38927 -2.88268,-0.61584 -0.33073,-0.0784 -1.3185,-0.30829 -0.97891,-0.29583 3.69933,0.13555 10.53597,1.81095 -4.11983,-1.22565 -7.16005,-10.34973 -10.02226,-10.37178 -9.50685,-17.54539 h -4.71437 c -8.67462,0 -14.97147,-2.4052 -18.92961,-5.89274 z m -52.37472,24.92339 c 0.0457,0.0459 0.12582,-0.70937 0.9729,-4.35918 l -0.0181,0.0182 c -0.46953,1.83571 -0.86507,3.26947 -1.24316,4.48597 0.21066,-0.2609 0.26453,-0.16881 0.28827,-0.14492 z m 0.95489,-4.34106 c 0.0325,-0.12702 0.0506,-0.19522 0.0841,-0.32604 -0.4022,0.43295 -0.63073,0.63709 -1.13505,1.20149 z m 0.0841,-0.32604 c -0.0689,0.29234 -0.006,0.0506 -0.0661,0.30792 l 1.39931,-1.1713 c 0.21102,-0.35426 0.38336,-0.64624 0.52849,-0.8815 0.0978,-0.15858 0.28919,-0.48108 0.36033,-0.59168 -0.10107,0.0974 -0.15183,0.14229 -0.26425,0.25357 h -0.006 c -0.47928,0.47461 -1.25721,1.33529 -1.95181,2.08299 z m 4.7264,-5.95915 c 0.17222,-0.36493 0.34901,-0.72834 0.52248,-1.09282 -0.0665,0.0455 -0.13166,0.0934 -0.19817,0.13886 -0.15962,0.41543 -0.26158,0.71622 -0.36634,1.02037 0.0151,-0.0216 0.0271,-0.0449 0.042,-0.0664 z m 0.52248,-1.09282 c 0.16506,-0.11273 0.32226,-0.23642 0.48646,-0.35018 0.012,-0.0179 0.024,-0.0363 0.036,-0.0543 0.02,-0.0663 0.0716,-0.218 0.0961,-0.29584 -0.12102,0.0515 -0.22849,0.0952 -0.34832,0.14492 -0.089,0.18563 -0.18179,0.36959 -0.27025,0.55546 z m 76.41509,-6.78027 c 0.57906,0.13067 1.00988,0.22569 1.83772,0.42264 1.70268,0.0803 1.81847,0.0158 -1.83772,-0.42264 z m -73.08199,0.28981 c -0.6405,1.10669 -1.22889,2.24594 -1.80766,3.38712 0.35651,-0.37791 0.72583,-0.74671 1.06899,-1.13508 -0.33204,1.00961 1.13372,-2.93446 0.73869,-2.25204 z m 7.7472,0.10869 c -0.97436,0.57143 -1.92763,1.17512 -2.88867,1.76903 0.0326,-0.006 0.14451,-0.0315 0.17403,-0.0362 1.0703,-0.50415 3.65128,-2.28217 2.71452,-1.73281 z m 59.17907,0.15094 c 0.0864,0.40544 0.0972,0.66828 0.26414,1.25583 0.1236,0.43467 0.31707,0.84292 0.51648,1.2498 -0.4302,-1.46301 -0.50428,-1.65473 -0.78071,-2.50563 z m -68.3616,1.47319 c -0.0166,0.0114 -0.0586,0.091 -0.13213,0.25358 -0.4053,0.89582 -0.60759,1.40886 -0.90684,2.10714 0.16134,-0.16808 0.32009,-0.33833 0.48044,-0.50717 0.3404,-1.02702 0.62069,-1.89636 0.55852,-1.85355 z m -0.68463,2.23391 c -0.27206,0.54529 -0.52819,1.09913 -0.79273,1.64828 0.0181,-0.006 0.0606,-0.0121 0.0781,-0.0182 0.095,-0.0809 0.17723,-0.18152 0.27025,-0.26567 0.13806,-0.42577 0.27692,-0.86048 0.44441,-1.3645 z m -8.72611,16.13259 c -0.0977,0.157 -0.11186,0.16241 -0.21619,0.33207 -0.0348,0.0565 0.0927,-0.12341 0.1201,-0.15698 0.04,-0.0802 0.0589,-0.10198 0.0961,-0.17509 z m -225.85815,29.72936 c -1.184064,0.87824 -2.504904,1.7863 -4.125835,2.77731 -12.779022,7.81288 -16.20492,24.89754 -8.059498,40.19864 2.992257,5.62093 1.982184,9.25689 -4.101815,14.79223 -5.684587,5.17194 -8.065503,12.67341 -8.065503,25.39433 0,16.35316 -0.724191,17.66832 -7.66313,13.93489 -9.241856,-4.9725 -12.833939,-2.04349 -12.833939,10.4572 0,5.15572 -1.846918,10.517263 -4.1018158,11.918306 -6.2648518,3.89256 -4.8804584,18.505309 2.0058658,21.161944 3.939435,1.519772 5.762925,6.924222 5.128771,15.220901 -0.852358,11.15148 0.744226,13.443329 12.023184,17.201252 7.155999,2.384207 16.775651,7.758912 21.373883,11.942466 4.773484,4.342993 11.219591,6.503855 15.025979,5.035407 3.179068,-1.226432 8.848071,0.313981 14.101119,3.598429 -0.05052,-0.583324 -0.08966,-1.16606 -0.07207,-1.750929 0.05867,-1.950965 0.440273,-3.851047 0.990923,-5.699536 0.446672,-2.539049 0.953271,-5.137954 1.008938,-5.415767 0.100978,-0.50397 0.187382,-1.01029 0.282272,-1.515435 0.09206,-0.370211 0.183631,-0.740886 0.276246,-1.110942 -0.03487,-4.314059 0.127453,-5.450967 2.504329,-5.168209 0.01537,-0.174966 0.06294,-1.047663 0.07807,-1.316233 -0.544896,-1.334194 -1.303787,-3.16591 -1.423325,-3.489745 -1.670126,-4.524451 -3.099494,-9.137599 -4.648322,-13.705454 -5.339013,-19.797993 -2.915109,-9.990107 -7.609081,-30.822175 -2.344879,-10.40668 -5.683289,-24.27286 -7.050556,-34.77683 -0.494853,-3.80163 -2.291109,-32.39313 -2.516343,-35.85153 -0.959027,-32.52591 -0.139537,-1.91338 -0.714665,-30.7618 -0.05523,-2.77041 -1.033227,-5.65767 -0.228216,-8.3078 0.454596,-1.49651 0.817645,-3.21792 1.195109,-4.96898 -0.265976,-1.54622 -0.558346,-3.08697 -0.834776,-4.63088 -0.625583,-1.42595 -1.427258,-2.93626 -1.945796,-4.34106 z m 243.25629,6.00745 c -0.1439,0.1512 -0.29734,0.29284 -0.43841,0.44679 0.14513,-0.11778 0.29426,-0.22925 0.44441,-0.33811 -0.003,-0.0314 -0.002,-0.0781 -0.006,-0.10869 z m 0.006,0.12075 c -0.14483,0.1302 -0.37781,0.33419 -0.46243,0.37433 -0.27458,1.12899 -0.7998,1.65719 -2.27011,4.47994 -0.30441,0.0808 -0.61282,0.21948 -0.91884,0.34414 0.10645,0.17061 0.17059,0.333 0.26425,0.50113 2.08887,-0.90582 3.59774,-1.74689 3.49525,-4.38333 -0.0215,-0.51552 -0.0615,-0.93384 -0.10823,-1.31621 z m -0.46243,0.37433 c 0.003,-0.013 0.009,-0.0232 0.0123,-0.0362 -0.0384,0.0419 -0.0821,0.0786 -0.12023,0.12075 -0.0307,0.034 0.0886,-0.0753 0.10793,-0.0845 z m -2.63645,-0.1268 c -0.23584,0.34125 -0.45264,0.60978 -0.70264,0.99621 -0.003,0.01 -0.003,0.0204 -0.006,0.0303 0.21886,-0.0994 0.40962,-0.22112 0.49846,-0.43471 0.0541,-0.12992 0.14759,-0.4301 0.21032,-0.59169 z m 1.50742,0.44075 c -0.95944,0.58503 -1.91757,1.17166 -2.87668,1.75695 -0.007,0.0284 -0.0166,0.0562 -0.024,0.0845 0.92665,-0.49221 1.85806,-0.97462 2.70854,-1.5879 0.0858,-0.0618 0.13652,-0.16205 0.19217,-0.25358 z m -1.9278,0.54942 c -0.27296,0.26282 -0.16469,0.16477 -0.35433,0.35018 -0.004,0.0158 -0.008,0.0326 -0.012,0.0483 -0.0488,0.17376 0.49605,-0.52338 0.36633,-0.39848 z m -8.41383,81.13991 c -0.24906,0.12022 -1.16684,1.36151 -2.05992,2.57203 0.4565,-0.28174 0.99141,-0.62115 1.3933,-0.86338 0.652,-1.24565 0.86244,-1.80318 0.66662,-1.70865 z m -0.66662,1.70865 c -0.0569,0.10875 -0.0371,0.096 -0.10208,0.21735 -0.15608,0.29141 -0.35977,0.55414 -0.54651,0.82715 0.25887,-0.12853 0.62391,-0.26208 0.80475,-0.38641 0.19507,-0.13413 0.42271,-0.35827 0.65461,-0.59168 0.0518,-0.21584 0.101,-0.42484 0.15014,-0.63396 -0.32058,0.18993 -0.60463,0.3528 -0.96089,0.56754 z m -0.6486,1.04451 c -0.41722,0.20718 -0.78281,0.4113 -1.31523,0.61584 h -0.006 c -0.0141,0.006 -0.0277,0.0127 -0.042,0.0182 -0.004,0.006 -0.008,0.006 -0.012,0.0121 0.0135,-0.001 0.0342,-0.0105 0.0481,-0.0121 0.29528,-0.0306 0.67076,-0.18396 1.02095,-0.29583 0.0807,-0.0489 0.0547,-0.034 0.13812,-0.0845 0.0511,-0.0877 0.11085,-0.16977 0.16817,-0.25358 z m -1.36342,0.63398 c 0.23725,-0.33159 0.39,-0.50527 0.61857,-0.81509 -0.44067,0.272 -0.85144,0.52247 -1.34525,0.8332 0.22446,-0.007 0.44806,0.0189 0.67262,0 0.0178,-0.007 0.0362,-0.0114 0.0541,-0.0182 z m 2.75656,-1.32225 c -0.23984,0.21769 -0.47461,0.44505 -0.72067,0.65207 0.21512,-0.10112 0.42758,-0.21278 0.6426,-0.31396 0.0289,-0.11855 0.0498,-0.22149 0.0781,-0.33811 z m -0.72067,0.65207 c -0.15691,0.0737 -0.31239,0.15203 -0.46844,0.22943 0.089,-0.035 0.15556,-0.0341 0.24624,-0.0725 0.009,-0.006 0.14086,-0.0818 0.14415,-0.0845 0.0271,-0.0226 0.0511,-0.0498 0.0781,-0.0725 z m -0.22222,0.15697 c -0.0348,0.0235 -0.45409,0.25933 -0.56452,0.32604 0.56714,-0.26128 0.9381,-0.47727 1.24315,-0.67622 -0.22797,0.11113 -0.45706,0.25642 -0.67863,0.35018 z m -1.54342,0.70641 c -0.13468,0.0692 -0.27339,0.12544 -0.40838,0.19321 -0.007,0.0151 -0.006,0.0161 -0.012,0.0303 0.0589,-0.0238 0.1149,-0.048 0.17416,-0.0725 0.11014,-0.0671 0.12834,-0.0792 0.24623,-0.15095 z m -0.43241,0.20529 c -0.0755,0.0379 -0.15251,0.0715 -0.22821,0.10869 -0.003,0.004 -8.4e-4,0.008 -0.006,0.0121 0.0737,-0.0294 0.14741,-0.0602 0.22222,-0.0906 0.005,-0.01 0.007,-0.0204 0.012,-0.0303 z m -1.48338,3.13354 c -0.0185,0.0381 -0.0358,0.0766 -0.0541,0.11472 0.0255,-0.0681 -0.22942,0.61778 -0.2102,0.56753 -0.006,0.0403 -0.012,0.0805 -0.0181,0.12075 0.0926,-0.2592 0.20401,-0.5883 0.28227,-0.80301 z m 72.81173,10.02249 c 0.72745,1.02576 1.38412,2.11448 2.01188,3.2241 -0.0566,-0.40599 -0.12053,-1.04703 -0.13806,-1.43696 -0.58994,-0.53306 -1.163,-1.07093 -1.54346,-1.51545 -0.0621,-0.0726 -0.18449,-0.18334 -0.27612,-0.27169 -0.0184,-3.6e-4 -0.035,3.4e-4 -0.0541,0 z m 2.7746,2.58411 c 0.059,0.0977 0.11562,0.19883 0.17404,0.29584 0.0603,0.0995 0.21216,0.092 0.31828,0.13886 -0.13837,-0.12211 -0.33242,-0.29426 -0.49244,-0.43471 z m -102.26299,47.262672 c -0.2285,1.131153 -0.43356,2.265981 -0.57053,3.411267 -0.25051,2.09466 -0.28849,4.207515 -0.39037,6.315377 0.47746,-0.288478 0.95177,-0.567861 1.42933,-0.851309 0.004,-0.154842 -0.007,-0.310166 0,-0.464897 0.0778,-1.673841 0.63488,-3.239296 0.76271,-4.896531 0.0858,-1.112516 0.1146,-2.229112 0.15015,-3.344854 -0.46017,-0.05988 -0.9213,-0.106124 -1.38129,-0.169062 z m -14.85782,14.544685 c -0.14544,0.967186 -0.24572,1.940721 -0.37836,2.910144 1.47998,-0.333548 3.52565,-1.337625 5.88548,-2.680722 -1.8368,-0.06523 -3.66985,-0.165878 -5.50712,-0.229434 z M 86.64656,-16.686306 c -0.03681,0.01546 -0.04763,0.02164 -0.08407,0.03617 0.03099,0.01546 0.05904,0.03277 0.09009,0.04822 -0.0034,-0.02782 -0.0014,-0.05657 -0.0061,-0.0847 z m 97.74092,71.998924 c -3.11615,1.972697 -6.25763,3.912564 -9.30866,5.971229 -0.12973,-0.103558 -0.27148,-0.193514 -0.40237,-0.295835 -4.97229,3.144815 -12.57834,5.154823 -19.42207,4.932746 -7.68509,-0.249466 -21.93256,0.915975 -31.66145,2.590147 C 109.00468,71.021298 103.8628,70.03512 94.249632,62.889856 80.631063,52.767449 77.734267,56.259259 77.734267,82.802019 c 0,12.214366 2.47974,17.809231 10.804051,24.392071 13.791802,10.90663 35.920342,11.01974 56.842882,0.29583 8.8457,-4.53391 19.8981,-8.241396 24.55684,-8.241396 21.7706,0 33.48932,-22.054292 20.91146,-39.347342 -0.76107,-1.046366 -1.33399,-1.75436 -1.93981,-2.51166 -1.69394,-0.550649 -3.19584,-1.256511 -4.52221,-2.076935 z m 161.74248,11.978687 c -1.18671,0.03184 -1.9038,1.424675 -1.9038,4.498051 0,10.833524 -16.83871,23.335502 -31.42723,23.335502 -7.41244,0 -19.5161,3.703902 -26.89901,8.229282 -16.82539,10.31317 -34.01346,10.47543 -53.46174,0.50718 -18.09148,-9.272768 -24.07655,-4.950085 -24.71899,17.8352 -0.48215,17.10016 12.72769,33.44898 31.73352,39.27488 23.59789,7.23349 61.41613,-2.43422 65.97135,-16.86314 1.80916,-5.73061 5.08549,-6.91942 14.06509,-5.1139 15.40213,3.09684 40.08105,-5.33761 45.52236,-15.559 3.20511,-6.02081 2.6072,-13.33625 -2.30615,-28.207872 -5.24236,-15.867664 -13.0153,-28.03192 -16.5754,-27.936183 z"
       inkscape:connector-curvature="0"
       inkscape:export-xdpi="96"
       inkscape:export-ydpi="96" />
    <path
       id="path3775"
       style="fill:#5f5c5a;stroke-width:4.11074209"
       d="m 352.55592,-119.19947 c -5.41495,0 -9.28251,15.22547 -6.28184,24.730191 1.43134,4.533867 4.25825,8.241383 6.28184,8.241383 7.42173,0 12.66726,-16.085884 8.06552,-24.730194 -2.41355,-4.53387 -6.04189,-8.24138 -8.06552,-8.24138 z m 102.23312,0 c -7.42173,0 -12.67322,16.08588 -8.07151,24.730191 2.41358,4.533867 6.04788,8.241383 8.07151,8.241383 2.02356,0 4.8505,-3.707516 6.28181,-8.241383 3.00067,-9.504721 -0.86686,-24.730191 -6.28181,-24.730191 z M 183.45662,34.029908 c -0.0224,0.557017 -0.0138,1.323034 -0.0481,1.817329 0.62962,-0.108195 1.16661,-0.170948 1.74162,-0.253485 -0.59254,-0.476736 -1.16715,-0.983612 -1.69358,-1.563751 z m 13.55461,7.975734 c -0.007,0.424648 -0.0169,0.849297 -0.024,1.273945 0.0212,0.408048 0.0688,0.752787 0.0781,1.195457 0.44407,1.116909 0.8067,2.166736 1.06299,3.133532 1.10977,-0.153018 2.26349,-0.382947 3.4412,-0.652073 -0.56157,-1.249246 -1.08993,-2.518616 -1.54944,-3.821804 -1.01473,-0.356609 -2.0118,-0.740917 -3.0088,-1.129057 z m 0.054,2.469402 c -0.0315,-0.07944 -0.0584,-0.156109 -0.0901,-0.235555 -0.0188,1.169306 -0.0379,2.338611 -0.06,3.507854 0.0298,-0.003 0.0602,-0.0093 0.0901,-0.01237 0.0258,-1.115084 0.0787,-2.372552 0.06,-3.260335 z"
       inkscape:connector-curvature="0"
       inkscape:export-xdpi="96"
       inkscape:export-ydpi="96" />
    <path
       style="fill:#161415;stroke-width:4.11074209"
       d="m 185.88246,46.258648 c -4.78395,-1.796803 -9.79069,-7.643453 -11.1261,-12.992532 -2.12748,-8.521808 -4.41996,-9.534602 -18.52148,-8.182633 -21.78508,2.088619 -32.17943,-4.484388 -38.00531,-24.0332644 -4.43682,-14.8878226 -6.17135,-16.4195176 -18.593698,-16.4195176 -17.77999,0 -30.099652,-12.288742 -30.099652,-30.024061 0,-10.664725 -2.604929,-15.084261 -12.276036,-20.827622 -14.148718,-8.402466 -19.481307,-24.102045 -13.551328,-39.896208 3.052439,-8.13001 2.682647,-12.9624 -1.423989,-18.60854 -7.438136,-10.22655 -6.996854,-22.33924 1.143292,-31.38201 5.679648,-6.30944 5.919183,-9.30427 1.585484,-19.82261 -6.723524,-16.31866 -2.745663,-30.61286 10.164818,-36.52667 8.717057,-3.99296 9.998324,-6.65744 7.772269,-16.16299 -1.466004,-6.26002 -2.64739,-12.30925 -2.625303,-13.44271 0.361234,-18.54006 1.999166,-21.44415 15.228833,-27.00136 7.819718,-3.28473 18.889215,-5.97223 24.59888,-5.97223 5.70967,0 10.42224,-2.31846 10.47238,-5.15212 0.1558,-8.80476 14.17987,-24.05554 22.61854,-24.59702 4.4214,-0.28372 11.88175,0.75614 16.57857,2.31077 6.59135,2.18171 9.59948,0.48813 13.18496,-7.42315 5.95312,-13.13541 21.31444,-17.02644 36.2205,-9.17468 11.01836,5.80392 12.29241,5.50814 25.14611,-5.8378 16.92751,-14.94189 33.07047,-15.54017 45.99913,-1.70477 7.98682,8.54696 12.09528,9.84158 24.76723,7.80444 21.50483,-3.45712 32.08789,3.54093 35.23006,23.29592 2.51228,15.79474 3.14712,16.35671 18.47693,16.35671 18.44162,0 32.27453,11.26636 32.27453,26.28636 0,15.221 -9.69282,21.13788 -24.51559,14.96531 -17.80648,-7.41506 -32.61501,-2.40622 -35.48118,12.00117 -3.57093,17.94985 -15.47018,21.05311 -37.57907,9.80041 -10.23473,-5.20914 -23.36946,-9.44584 -29.18827,-9.41488 -15.9375,0.0848 -29.02813,4.45738 -29.03451,9.69825 -0.008,6.48238 -52.65214,5.62641 -64.88674,-1.05502 -18.7016,-10.21313 -20.89522,-5.4616 -27.86981,60.36796 -2.18093,20.58465 -1.57974,22.38772 12.02478,36.06487 7.87626,7.9183 18.1948,14.39691 22.93008,14.39691 5.8764,0 8.60961,2.61696 8.60961,8.243403 0,12.299913 -20.58774,11.006308 -32.79851,-2.060847 -5.29591,-5.667336 -12.99718,-10.304246 -17.11391,-10.304246 -9.19265,0 -9.33497,1.94748 -0.86937,11.896722 21.18454,24.89721 26.65238,29.320263 36.24609,29.320263 8.77646,0 10.43589,1.896077 10.43589,11.92412 0,14.000643 5.61916,16.952012 32.10887,16.864655 29.11264,-0.09598 31.04269,-2.602939 28.20471,-36.635034 -2.31247,-27.730386 -1.99281,-29.249036 6.15677,-29.249036 4.72774,0 15.22867,-6.99032 23.3354,-15.53404 8.23044,-8.67412 17.77359,-14.93724 21.61008,-14.18261 6.31657,1.24248 6.21513,3.24283 -1.25814,24.80788 -20.04293,57.836374 -13.30406,106.0627771 18.00686,128.865374 17.17276,12.506275 15.69298,14.412045 -9.70344,12.49697 -7.46428,-0.56289 -12.74259,2.354469 -17.51872,9.682674 -8.5575,13.130124 -25.11419,13.843961 -38.03581,1.639921 -7.01106,-6.621695 -10.7223,-7.718912 -14.74794,-4.360088 -9.75278,8.137284 -25.46837,12.209265 -34.30775,8.889237 z"
       id="path3773"
       inkscape:connector-curvature="0"
       inkscape:export-xdpi="96"
       inkscape:export-ydpi="96" />
  </g>
</svg>
